<svg width="29" height="34" viewBox="0 0 29 34" fill="none" xmlns="http://www.w3.org/2000/svg">
<path d="M2.79916 14.4619L1.80532 14.351L2.79916 14.4619ZM1.01431 30.4619L2.00814 30.5727L1.01431 30.4619ZM27.9857 30.4619L26.9919 30.5727L27.9857 30.4619ZM26.2008 14.4619L27.1947 14.351V14.351L26.2008 14.4619ZM1.80532 14.351L0.0204722 30.351L2.00814 30.5727L3.79299 14.5727L1.80532 14.351ZM3.29508 34H25.7049V32H3.29508V34ZM28.9795 30.351L27.1947 14.351L25.207 14.5727L26.9919 30.5727L28.9795 30.351ZM23.9201 11.4286H5.07992V13.4286H23.9201V11.4286ZM27.1947 14.351C27.0087 12.6841 25.5956 11.4286 23.9201 11.4286V13.4286C24.5832 13.4286 25.1347 13.9245 25.207 14.5727L27.1947 14.351ZM25.7049 34C27.6645 34 29.1972 32.3018 28.9795 30.351L26.9919 30.5727C27.0763 31.3299 26.4809 32 25.7049 32V34ZM0.0204722 30.351C-0.19715 32.3018 1.33555 34 3.29508 34V32C2.51915 32 1.92368 31.3299 2.00814 30.5727L0.0204722 30.351ZM3.79299 14.5727C3.8653 13.9245 4.41685 13.4286 5.07992 13.4286V11.4286C3.40437 11.4286 1.99127 12.6841 1.80532 14.351L3.79299 14.5727ZM8.61559 9V7.85714H6.61559V9H8.61559ZM20.3844 7.85714V9H22.3844V7.85714H20.3844ZM14.5 2C17.7536 2 20.3844 4.62607 20.3844 7.85714H22.3844C22.3844 3.51402 18.8507 0 14.5 0V2ZM8.61559 7.85714C8.61559 4.62607 11.2464 2 14.5 2V0C10.1493 0 6.61559 3.51402 6.61559 7.85714H8.61559Z" fill="#041434"/>
</svg>
