<svg width="80" height="80" viewBox="0 0 80 80" fill="none" xmlns="http://www.w3.org/2000/svg">
<rect width="80" height="80" rx="10" fill="#F1F1FF"/>
<path d="M39.4225 20.0977C39.2796 20.1501 39.1415 20.2072 39.1129 20.231C39.0081 20.312 38.589 20.5263 38.4033 20.593C37.8412 20.7978 37.0602 20.8692 36.6458 20.7454C36.5363 20.7168 36.2124 20.6883 35.9219 20.6883C35.417 20.6835 35.3884 20.6883 35.1027 20.8407C34.936 20.9359 34.6788 21.1407 34.493 21.3312C33.7262 22.1361 33.1595 22.4124 32.0212 22.5457C31.3258 22.6267 30.8162 23.0363 30.5114 23.7555C30.1923 24.5223 29.5588 25.1748 28.8492 25.4701C28.4967 25.6177 28.1252 25.8701 27.9443 26.0749C27.7823 26.2607 27.5632 26.6989 27.5632 26.8417C27.5632 26.8941 27.5204 27.1704 27.4727 27.4561C27.3203 28.3182 27.0822 28.7516 26.3154 29.5184C26.0534 29.7804 25.8725 30.0042 25.8058 30.1566C25.6772 30.4519 25.6343 30.971 25.701 31.3616C25.8534 32.2427 25.8534 32.2284 25.7772 32.6761C25.6772 33.2619 25.5724 33.5382 25.2295 34.1145C25.058 34.405 24.9771 34.7527 25.0056 35.1099C25.0294 35.4576 25.1009 35.6624 25.3771 36.1386C25.7629 36.8102 25.9106 37.5865 25.7724 38.2104C25.72 38.4438 25.6867 38.7867 25.6867 39.0915C25.6867 39.744 25.7677 39.925 26.3154 40.4727C26.5345 40.6966 26.8012 40.9871 26.9012 41.1205C27.2489 41.5729 27.4585 42.1778 27.5442 42.9636C27.5775 43.2732 27.7776 43.7495 27.9585 43.94C28.1348 44.1305 28.4777 44.3591 28.7539 44.4782C29.5398 44.8068 30.1685 45.426 30.4923 46.188C30.6352 46.5309 30.8686 46.8691 31.0781 47.0501C31.3496 47.2787 31.6878 47.4025 32.326 47.4978C33.2547 47.6359 33.812 47.936 34.4883 48.6551C34.6788 48.8552 34.9169 49.0457 35.0979 49.1457C35.3884 49.3029 35.4122 49.3076 35.9219 49.3029C36.2124 49.3029 36.541 49.2743 36.6601 49.2362C36.7792 49.2029 37.0459 49.179 37.2554 49.179C37.8698 49.1838 38.3604 49.3267 39.0319 49.7029C39.7225 50.0935 40.2655 50.0935 40.9561 49.7029C41.8562 49.1981 42.5087 49.0981 43.6613 49.2838C44.4424 49.4076 44.9663 49.2314 45.4902 48.6551C46.1713 47.9121 46.8952 47.5502 47.9288 47.4454C48.6622 47.3692 49.1718 46.9596 49.4957 46.188C49.8053 45.4546 50.3768 44.8687 51.115 44.5211C51.6008 44.2972 51.6723 44.2544 51.8914 44.0638C52.1724 43.8162 52.401 43.3685 52.4438 42.9732C52.5772 41.8253 52.8534 41.2681 53.6917 40.4489C54.2108 39.9393 54.2966 39.7536 54.3013 39.0915C54.3013 38.801 54.2775 38.4819 54.2346 38.3295C54.0822 37.7389 54.2013 36.9388 54.5299 36.3006C54.9491 35.4909 54.9633 35.4576 54.9872 35.1099C55.011 34.7527 54.93 34.405 54.7585 34.1145C54.2204 33.2095 54.0489 32.3903 54.2346 31.6616C54.2775 31.5092 54.3013 31.1901 54.3013 30.8996C54.2966 30.2376 54.2156 30.0566 53.6822 29.5279C52.8392 28.6944 52.5677 28.142 52.4438 27.0275C52.4105 26.6989 52.2057 26.2369 52.0057 26.0273C51.8342 25.8463 51.458 25.6082 51.1389 25.4701C50.7531 25.3081 50.3816 25.0414 50.0625 24.6937C49.8005 24.4032 49.7291 24.2889 49.4004 23.6078C49.1099 23.003 48.5908 22.6172 47.9716 22.5457C47.3906 22.4791 46.9619 22.3647 46.5761 22.179C46.2523 22.0218 46.0856 21.898 45.6712 21.4979C45.3902 21.2265 45.033 20.9312 44.8758 20.8454C44.5996 20.6883 44.571 20.6835 44.09 20.6883C43.7947 20.6883 43.4375 20.7216 43.2089 20.774C42.7278 20.8788 42.1992 20.8216 41.5895 20.5978C41.4038 20.5311 40.9751 20.3072 40.8704 20.2263C40.8418 20.2025 40.6941 20.1405 40.5417 20.0882C40.1893 19.9691 39.7702 19.9691 39.4225 20.0977ZM41.3752 22.2123C41.9658 22.2838 42.4849 22.379 42.8993 22.4791C43.0184 22.5076 43.1898 22.5457 43.2803 22.5695C44.4281 22.841 45.9189 23.503 47.0715 24.2603C48.486 25.1891 49.9148 26.6322 50.7816 27.9991C51.2103 28.6754 51.6532 29.5279 51.9295 30.209C51.958 30.2852 52.02 30.4328 52.0628 30.5329C52.1057 30.6329 52.139 30.7424 52.139 30.7805C52.139 30.8186 52.1676 30.9186 52.2057 31.0044C52.3915 31.4473 52.6058 32.3903 52.763 33.4477C52.8439 34.0192 52.8725 35.4718 52.8106 36.0196C52.6772 37.1674 52.5963 37.6437 52.4248 38.258C52.3676 38.4676 52.301 38.701 52.2819 38.782C52.12 39.3868 51.4675 40.868 51.115 41.4253C51.0484 41.5301 50.996 41.6253 50.996 41.6348C50.996 41.6539 50.7007 42.0968 50.3435 42.616C49.9386 43.2065 48.9956 44.2067 48.2574 44.8306C47.8145 45.2069 46.7143 45.9975 46.6381 45.9975C46.6238 45.9975 46.5237 46.0547 46.4094 46.1261C46.0522 46.3547 45.1187 46.7977 44.4948 47.0358C44.1376 47.1739 43.9376 47.2406 43.7804 47.2835C43.7042 47.3025 43.4756 47.3644 43.2803 47.4168C41.5657 47.8883 39.3939 47.9693 37.6365 47.6359C37.0316 47.5216 36.2791 47.3216 36.0028 47.2073C35.9171 47.1692 35.8171 47.1406 35.779 47.1406C35.7123 47.1406 35.4646 47.0453 35.217 46.9215C35.1408 46.8834 35.0598 46.8548 35.036 46.8548C35.0122 46.8548 34.7074 46.7119 34.3597 46.5405C33.6977 46.2118 33.6596 46.1928 33.3357 45.9832C33.2214 45.9118 33.1214 45.8546 33.1071 45.8546C33.0261 45.8546 32.1831 45.2212 31.6116 44.7306C30.2589 43.5685 29.2873 42.3207 28.5158 40.7585C28.3777 40.4823 28.2491 40.2203 28.2253 40.1774C28.1443 40.0155 27.849 39.2439 27.849 39.1963C27.849 39.1677 27.8204 39.0725 27.7823 38.9868C27.668 38.7105 27.468 37.958 27.3537 37.3531C27.087 35.9386 27.087 34.0525 27.3537 32.638C27.468 32.0331 27.668 31.2806 27.7823 31.0044C27.8204 30.9186 27.849 30.8186 27.849 30.7805C27.849 30.7424 27.8776 30.6424 27.9157 30.5567C27.9538 30.471 28.03 30.2804 28.0871 30.1376C28.2014 29.8518 28.6872 28.8564 28.8825 28.5182C29.1969 27.9705 29.4969 27.5466 30.1637 26.7084C30.7448 25.9702 32.0497 24.8128 32.969 24.2222C33.5643 23.8412 34.555 23.3221 35.136 23.0887C35.2789 23.0315 35.4694 22.9553 35.5551 22.9172C35.6409 22.8791 35.7409 22.8505 35.779 22.8505C35.8171 22.8505 35.9171 22.822 36.0028 22.7839C36.1648 22.7172 36.4648 22.6267 36.9697 22.4981C38.2604 22.1695 40.0893 22.0504 41.3752 22.2123Z" fill="#716FF4"/>
<path d="M38.6128 23.6412C37.4745 23.8126 36.9172 23.9555 35.7075 24.3984C35.4408 24.4984 34.6168 24.8985 34.3025 25.089C34.1739 25.1652 34.031 25.2462 33.9929 25.2653C33.6595 25.4272 32.6451 26.2083 32.0688 26.756C31.502 27.2942 30.459 28.5849 30.2637 28.9945C30.2446 29.0326 30.1875 29.1278 30.1351 29.2088C29.997 29.4279 29.4207 30.5995 29.4207 30.6757C29.4207 30.7091 29.3969 30.7615 29.3683 30.79C29.3397 30.8186 29.3016 30.9139 29.2778 30.9996C29.254 31.0901 29.1873 31.3092 29.1206 31.4949C28.3824 33.6239 28.3824 36.3672 29.1206 38.4962C29.1873 38.6772 29.254 38.8915 29.2778 38.9725C29.3492 39.2439 29.8303 40.2584 30.0875 40.687C30.1637 40.8156 30.2446 40.9585 30.2637 40.9966C30.578 41.6063 31.7163 42.9446 32.526 43.6542C32.9261 43.9972 33.7738 44.6211 33.9929 44.7259C34.031 44.7449 34.193 44.8354 34.3501 44.9259C34.5073 45.0164 34.7978 45.1688 34.9931 45.264C35.1884 45.3545 35.3884 45.4546 35.436 45.4784C35.5361 45.5308 36.3029 45.8118 36.6362 45.9118C37.8079 46.2785 38.6652 46.4023 39.994 46.4023C41.3466 46.4023 42.0801 46.2976 43.3517 45.9165C44.109 45.6879 44.9568 45.3212 45.6378 44.9259C45.795 44.8354 45.957 44.7449 45.9951 44.7259C46.1808 44.6354 47.1381 43.9448 47.3334 43.759C47.3715 43.7209 47.5715 43.5399 47.7716 43.3637C48.3812 42.8208 49.5004 41.4681 49.7243 40.9966C49.7433 40.9585 49.8243 40.8156 49.9005 40.687C50.072 40.406 50.5149 39.5011 50.5721 39.3297C50.5911 39.263 50.653 39.0915 50.7102 38.9486C51.1912 37.7056 51.4008 36.4958 51.4008 34.9956C51.4008 33.7287 51.2484 32.6618 50.9388 31.7331C50.915 31.6521 50.8769 31.5235 50.8531 31.4473C50.7911 31.2282 50.7054 30.9853 50.634 30.8424C50.5959 30.7758 50.5673 30.6948 50.5673 30.6662C50.5673 30.5995 50.1625 29.7565 49.9815 29.4469C49.9053 29.3136 49.8053 29.1421 49.7624 29.0659C49.2242 28.0705 47.7954 26.5179 46.7095 25.7463C46.0379 25.27 44.752 24.5508 44.3424 24.4222C44.2709 24.3984 44.09 24.3365 43.9471 24.2794C43.1707 23.9793 42.3373 23.7793 41.2942 23.6364C40.6322 23.5459 39.2367 23.5507 38.6128 23.6412ZM44.6377 27.9229C45.5426 28.061 46.4332 28.2705 47.0429 28.4944C48.1669 28.9088 48.2716 28.9707 48.4669 29.3612C48.5955 29.6184 48.5955 29.8994 48.4669 30.1518C48.4098 30.2614 48.1335 30.5757 47.8525 30.852C47.481 31.2187 47.281 31.4616 47.1 31.7712C46.9619 31.9998 46.8524 32.1998 46.8524 32.2141C46.8524 32.2332 46.7238 32.5142 46.5618 32.8476C45.6188 34.8003 45.314 35.3051 44.7377 35.8767C44.2852 36.3196 44.0519 36.4482 43.1374 36.753C42.1658 37.0769 41.599 37.1483 40.2083 37.134L39.0653 37.115L38.889 37.4722C38.7938 37.6675 38.7128 37.858 38.708 37.8913C38.708 37.9294 38.6795 38.0151 38.6414 38.0818C38.5699 38.2247 38.4842 38.4676 38.4223 38.6867C38.3985 38.7629 38.3604 38.8915 38.3365 38.9725C38.0317 39.8869 37.8507 41.0776 37.8507 42.1873C37.8507 43.1256 37.8031 43.278 37.4697 43.4685C37.2459 43.5923 37.0411 43.5971 36.8029 43.4733C36.5458 43.3447 36.4219 43.0922 36.4219 42.7112C36.4219 42.3111 36.2267 40.9585 36.0552 40.1631C35.8456 39.182 35.5408 38.1056 35.2789 37.4246C35.2217 37.2817 35.155 37.0959 35.1312 37.0197C35.1074 36.9388 35.0693 36.834 35.0455 36.7816C35.0217 36.7292 34.955 36.5673 34.8978 36.4244C34.6835 35.9005 34.0929 34.6812 33.8596 34.2811C33.8072 34.1906 33.7167 34.0287 33.6595 33.9239C33.6024 33.8192 33.4928 33.6429 33.4166 33.5286C33.3404 33.4143 33.2785 33.3143 33.2785 33.3048C33.2785 33.2762 32.5736 32.2379 32.4212 32.0426C32.2307 31.7997 32.1354 31.5902 32.1354 31.4187C32.1354 31.071 32.5069 30.7091 32.8546 30.7091C33.0308 30.7091 33.288 30.8472 33.4262 31.0091C33.5166 31.1139 34.0263 31.8426 34.112 31.9855C34.1406 32.0284 34.2549 32.2046 34.3692 32.376C35.1074 33.4715 35.9647 35.1623 36.5029 36.5911C36.541 36.6959 36.6029 36.8435 36.6315 36.9245C36.6648 37.0007 36.7648 37.296 36.8553 37.577C36.9458 37.8627 37.0411 38.0913 37.0649 38.0913C37.0935 38.0913 37.184 37.9056 37.2697 37.6722C37.4554 37.1721 37.4888 37.0959 37.7745 36.5196L37.9936 36.0624L37.9365 35.7814C37.8555 35.3861 37.8555 33.562 37.9365 33.019C38.1032 31.9045 38.4318 30.9186 38.8557 30.29C38.9319 30.1756 38.9938 30.0709 38.9938 30.0566C38.9938 30.0423 39.0748 29.928 39.17 29.8089C39.9987 28.7849 41.1037 28.1515 42.423 27.9467C42.6183 27.9133 42.804 27.88 42.8278 27.8752C42.9755 27.8276 44.2281 27.861 44.6377 27.9229Z" fill="#716FF4"/>
<path d="M42.4944 29.3755C41.0942 29.6946 40.2131 30.4424 39.7225 31.7331C39.5368 32.2236 39.4463 32.5713 39.351 33.1619C39.2701 33.7191 39.2653 33.8382 39.3224 33.8715C39.3463 33.8906 39.5701 33.6572 39.8178 33.3667C40.5846 32.4522 41.9181 31.1758 42.4754 30.8234C42.9469 30.5281 43.5661 30.8615 43.5661 31.414C43.5661 31.6331 43.4279 31.8998 43.2612 32.0093C43.1993 32.0522 42.9707 32.2379 42.7516 32.4237C41.8181 33.2286 41.0608 34.024 40.4131 34.8955C40.0702 35.3528 39.9892 35.4814 39.9797 35.5814C39.9702 35.6862 39.9797 35.6862 40.637 35.6862C41.78 35.6814 42.6373 35.5242 43.3232 35.1908C43.647 35.0337 44.1471 34.4669 44.4281 33.943C44.5138 33.7811 45.0473 32.6999 45.4997 31.7807C45.8426 31.0758 46.1046 30.6519 46.5094 30.1709C46.619 30.0375 46.6952 29.9137 46.6761 29.8994C46.6333 29.8613 46.3094 29.7518 45.9474 29.6518C44.7139 29.2993 43.3184 29.1898 42.4944 29.3755Z" fill="#716FF4"/>
<path d="M34.0263 50.2697C34.012 50.2935 33.8739 50.5555 33.7167 50.8555C33.5643 51.1556 33.2976 51.6604 33.1356 51.9748C32.7927 52.6273 32.4069 53.3703 31.9878 54.1752C31.2972 55.504 30.9686 56.1326 30.84 56.3755C30.659 56.7185 30.6638 56.8899 30.8686 57.1233C31.021 57.2995 31.04 57.309 31.3068 57.3043C31.4639 57.3043 31.6973 57.2662 31.8259 57.2281C31.9592 57.19 32.2355 57.1185 32.445 57.0709C32.6546 57.028 32.9213 56.9566 33.0356 56.9233C33.1547 56.8852 33.2928 56.8566 33.3452 56.8566C33.3976 56.8566 33.5262 56.828 33.6357 56.7899C34.212 56.5946 34.5883 56.6089 34.8217 56.8375C34.9598 56.9804 35.0122 57.0852 35.4789 58.1425C35.5265 58.2616 35.598 58.4188 35.6361 58.4997C35.6694 58.5759 35.7504 58.7617 35.8171 58.9046C35.8838 59.0474 35.9838 59.2856 36.0409 59.4285C36.241 59.919 36.6077 60.1191 36.9411 59.9238C37.0792 59.8428 37.1554 59.7333 37.4459 59.1665C37.7079 58.6664 38.1556 57.8139 38.4795 57.19C38.9319 56.3327 39.332 55.5659 39.6178 55.0086C39.7749 54.7181 40.0321 54.2228 40.1893 53.9132C40.3512 53.6084 40.637 53.0559 40.8275 52.6892C41.018 52.3224 41.2895 51.8033 41.4276 51.5366C41.5705 51.2699 41.6657 51.0365 41.6514 51.0222C41.6324 51.0032 41.4943 51.046 41.3419 51.1175C40.7084 51.4223 39.9416 51.5033 39.2748 51.3366C38.9129 51.2508 38.6652 51.1413 38.1842 50.8698C37.7936 50.6507 37.3412 50.5507 37.0316 50.6174C35.8933 50.846 35.1884 50.7841 34.3978 50.384C34.093 50.2268 34.0596 50.2173 34.0263 50.2697Z" fill="#716FF4"/>
<path d="M45.5903 50.384C45.0664 50.6507 44.7472 50.7269 44.0709 50.7317L43.4565 50.7412L43.1803 51.2604C43.0327 51.5509 42.785 52.0176 42.6373 52.3082C42.4897 52.5939 42.2373 53.075 42.0849 53.3703C41.9325 53.6608 41.6705 54.1561 41.5133 54.4657C41.3514 54.7705 41.1371 55.1753 41.0371 55.3658C40.9323 55.5564 40.8513 55.7612 40.8513 55.8231C40.8513 55.885 40.9085 56.0422 40.9751 56.1707C41.0466 56.2993 41.2228 56.6375 41.3752 56.928C41.5229 57.2138 41.8039 57.752 41.9944 58.1187C42.1897 58.4854 42.4421 58.976 42.5611 59.2094C42.6802 59.4428 42.8564 59.7142 42.9517 59.819C43.0946 59.9714 43.1517 60 43.3137 60C43.5613 60 43.8042 59.7857 43.9471 59.4285C44.0043 59.2856 44.1043 59.057 44.1614 58.9284C44.4377 58.3378 44.5663 58.0473 44.5663 58.0235C44.5663 58.0092 44.6329 57.852 44.7139 57.6758C44.7949 57.4996 44.9044 57.2709 44.952 57.1662C45.0568 56.9328 45.2521 56.7423 45.4569 56.6756C45.6141 56.6232 45.8617 56.6565 46.3999 56.7994C46.5047 56.828 46.7428 56.8852 46.9238 56.928C47.2763 57.009 47.5811 57.0852 48.0907 57.2186C48.2622 57.2614 48.5241 57.2995 48.6765 57.3043C48.9385 57.309 48.9623 57.2995 49.1195 57.1328C49.3481 56.8804 49.3338 56.7423 49.0194 56.1422C48.8766 55.8659 48.6384 55.4039 48.4908 55.1182C48.3431 54.8277 48.124 54.399 48.0002 54.1656C47.3668 52.9607 46.619 51.5271 46.238 50.7888C46.0856 50.4983 45.9475 50.2602 45.9189 50.2506C45.8951 50.2459 45.7474 50.303 45.5903 50.384Z" fill="#716FF4"/>
</svg>
