<svg width="80" height="80" viewBox="0 0 80 80" fill="none" xmlns="http://www.w3.org/2000/svg">
<rect width="80" height="80" rx="10" fill="#FEF3F1"/>
<path d="M39.8749 19.9271C39.8972 19.9627 39.6391 20.154 39.3098 20.3497C39.1408 20.4476 38.4333 20.8881 38.153 21.0705C37.9884 21.1773 37.846 21.2618 37.8327 21.2618C37.8193 21.2618 37.6859 21.3464 37.5301 21.4532C37.3744 21.5599 37.2187 21.6578 37.1831 21.6756C37.1475 21.6934 37.063 21.7424 36.9962 21.7869C36.9295 21.8269 36.6981 21.9737 36.4846 22.1072L36.093 22.3519L33.7127 22.3742L31.3323 22.3964L31.1098 22.8413C30.9897 23.0905 30.7984 23.4776 30.6916 23.7089C30.5848 23.9403 30.4024 24.3318 30.2867 24.5765C30.1666 24.8213 30.002 25.1727 29.9174 25.3552C29.8329 25.5376 29.6727 25.8802 29.5615 26.116L29.3613 26.5431L28.5115 27.0726C28.0443 27.3618 27.6127 27.6332 27.5549 27.6688C27.3235 27.8112 26.3758 28.3985 25.9843 28.6387C25.4148 28.9947 25.3881 29.0214 25.4192 29.2438C25.4993 29.8623 25.5838 30.4496 25.6417 30.7299C25.6773 30.9079 25.704 31.1081 25.704 31.1748C25.704 31.2416 25.7307 31.464 25.7663 31.6731C25.9175 32.5674 26.0288 33.3683 26.0199 33.5329C26.0199 33.5908 25.922 33.831 25.8108 34.0668C25.6995 34.3027 25.5349 34.6497 25.4504 34.8321C25.2501 35.2592 24.8675 36.069 24.3069 37.2436C24.1957 37.4839 24.1022 37.693 24.1022 37.7108C24.1022 37.733 24.2179 37.8754 24.3558 38.0356C24.7563 38.4805 26.2735 40.1757 26.4559 40.3715C27.15 41.1367 27.1589 41.1501 27.2301 41.5505C27.2701 41.7596 27.3324 42.1601 27.3724 42.4404C27.408 42.7207 27.4703 43.13 27.5059 43.3525C27.5415 43.5705 27.5994 43.9709 27.6394 44.2423C27.7239 44.8341 27.8441 45.6038 27.8619 45.6705C27.8797 45.7239 27.9553 45.7506 28.4625 45.8886C28.6227 45.9331 28.8318 45.9909 28.9297 46.022C29.1121 46.0799 29.4236 46.1689 29.864 46.289C30.4246 46.4447 30.6293 46.5026 30.7984 46.5559C30.8963 46.5871 31.1054 46.6449 31.2656 46.6894C31.4257 46.7295 31.6438 46.7918 31.755 46.8229C31.8662 46.8585 32.0442 46.9074 32.1554 46.9386C32.3868 47.0053 32.5292 47.1433 33.3567 48.0909C33.8105 48.6115 35.2744 50.2355 35.3767 50.3289C35.4612 50.4046 35.5369 50.4402 35.5814 50.4224C35.617 50.4046 35.7193 50.3779 35.8038 50.3556C35.8884 50.3378 36.1019 50.28 36.271 50.2266C36.4445 50.1732 36.6447 50.1154 36.7159 50.0976C36.7916 50.0753 37.0096 50.013 37.2053 49.9596C37.4011 49.9063 37.6236 49.844 37.6948 49.8262C37.7704 49.8084 37.8905 49.7728 37.9617 49.7461C38.0374 49.7238 38.2242 49.666 38.3844 49.6259C38.5446 49.5815 38.7537 49.5236 38.8516 49.4925C38.9495 49.4613 39.1586 49.399 39.3187 49.359C39.4789 49.3189 39.6925 49.2522 39.7948 49.2166C39.9728 49.1588 40.0039 49.1588 40.4177 49.2834C40.658 49.3545 40.9828 49.448 41.1429 49.4925C41.3031 49.537 41.5122 49.5948 41.6101 49.6259C41.708 49.6571 41.9171 49.7194 42.0773 49.7594C42.2375 49.8039 42.4555 49.8618 42.5667 49.8929C42.6779 49.9285 42.8871 49.9863 43.0339 50.0308C43.1807 50.0709 43.3809 50.1287 43.4788 50.1599C43.5767 50.191 43.7858 50.2488 43.946 50.2933C44.1062 50.3334 44.2797 50.3868 44.3375 50.409C44.471 50.4624 44.5778 50.3912 44.8581 50.062C44.9827 49.9196 45.352 49.5014 45.6812 49.1365C46.0105 48.7672 46.4198 48.309 46.5889 48.1221C46.7579 47.9308 46.9359 47.7306 46.9893 47.6772C47.0427 47.6193 47.1895 47.4547 47.323 47.3034C47.5721 47.0142 47.5766 47.0098 48.2529 46.8229C48.8402 46.6538 49.0093 46.6093 49.1739 46.5559C49.2718 46.5248 49.4809 46.467 49.6411 46.4225C49.9169 46.3468 50.1082 46.2934 50.5976 46.1555C50.7222 46.1199 50.9313 46.0576 51.0648 46.022C52.2172 45.6928 52.0926 45.764 52.1638 45.3769C52.1949 45.1945 52.2439 44.8919 52.2661 44.7095C52.3062 44.3714 52.3507 44.0822 52.4663 43.3525C52.5019 43.13 52.5642 42.7207 52.5998 42.4404C52.7689 41.2391 52.7778 41.2079 53.0803 40.8609C53.2316 40.6918 53.3829 40.5183 53.4229 40.4782C53.4585 40.4382 53.6321 40.2513 53.8011 40.06C53.9746 39.8642 54.3929 39.3971 54.7355 39.0144C55.7722 37.8621 55.87 37.7464 55.87 37.7108C55.87 37.693 55.7766 37.4839 55.6654 37.2436C55.5497 37.0078 55.3628 36.6118 55.2471 36.3671C55.1315 36.1224 54.949 35.7398 54.8467 35.5218C54.4952 34.7743 54.3662 34.4984 54.1615 34.0668C54.0503 33.831 53.9524 33.5908 53.9524 33.5329C53.9435 33.3683 54.0547 32.5674 54.206 31.6731C54.2416 31.464 54.2683 31.2416 54.2683 31.1748C54.2683 31.1081 54.295 30.9079 54.3306 30.7299C54.3662 30.5519 54.424 30.1826 54.4641 29.9157C54.5886 29.008 54.5886 29.0703 54.4774 28.9724C54.3751 28.879 54.0236 28.6432 53.9124 28.5898C53.8768 28.572 53.7922 28.5231 53.7255 28.4786C53.6632 28.4385 53.3651 28.2516 53.067 28.0692C52.7689 27.8868 52.4797 27.7044 52.4219 27.6688C52.3596 27.6332 51.9324 27.3618 51.4653 27.0726L50.611 26.5431L50.4108 26.116C50.2995 25.8802 50.1394 25.5376 50.0548 25.3552C49.9703 25.1727 49.8057 24.8213 49.6855 24.5765C49.5699 24.3318 49.3874 23.9403 49.2807 23.7089C49.1739 23.4776 48.987 23.0905 48.8624 22.8413L48.64 22.3964L46.2596 22.3742L43.8792 22.3519L43.4877 22.1072C42.9271 21.7557 42.9138 21.7468 42.5801 21.5377C42.4154 21.4309 42.2375 21.3241 42.1885 21.293C42.1396 21.2618 41.9705 21.1595 41.8103 21.0572C41.6502 20.9593 41.3966 20.7991 41.2408 20.7012C41.0851 20.6078 40.9071 20.4921 40.8404 20.4521C40.7737 20.4076 40.6891 20.3586 40.6535 20.3408C40.4133 20.2163 40.1196 19.9982 40.1196 19.9449C40.1196 19.9048 40.0707 19.8826 39.9817 19.8826C39.906 19.8826 39.8571 19.9004 39.8749 19.9271ZM41.2319 27.0681C42.5222 27.384 43.5634 27.9713 44.4843 28.9057C45.8325 30.2672 46.66 32.0202 46.9804 34.187C47.056 34.712 47.056 36.3315 46.9804 36.8565C46.6511 39.1034 45.7435 40.9588 44.3286 42.2891C43.0606 43.4815 41.6012 44.0866 39.9861 44.0866C38.945 44.0866 38.1842 43.8997 37.2276 43.4192C35.2121 42.3959 33.6192 40.1401 33.1209 37.5907C32.9741 36.8387 32.9429 36.5495 32.9207 35.6997C32.9029 34.801 32.9429 34.3516 33.1165 33.4528C33.2099 32.9723 33.4902 32.0424 33.6459 31.6954C33.8773 31.1793 34.2065 30.543 34.4023 30.2494C35.0919 29.2038 35.964 28.3495 36.9384 27.7756C37.1964 27.6198 37.8282 27.3306 38.0507 27.2639C38.4645 27.1349 38.8872 27.0325 39.1408 27.0014C39.5813 26.9436 40.8938 26.9836 41.2319 27.0681Z" fill="#DF6751"/>
<path d="M39.1185 29.613C38.6958 29.7421 38.1397 29.9957 37.8282 30.1959C37.4189 30.4628 36.7648 31.1213 36.4934 31.5396C36.2621 31.8955 35.9017 32.6252 35.8438 32.8477C35.8261 32.9233 35.7905 33.0434 35.7638 33.1191C35.3767 34.218 35.3322 36.1312 35.6703 37.3681C36.0619 38.8275 36.6447 39.8286 37.5568 40.6116C37.8416 40.8563 37.8816 40.8119 37.7793 40.3669C37.668 39.8686 37.668 38.2268 37.7793 37.6796C37.975 36.7096 38.3488 35.7441 38.7492 35.1657C38.8293 35.0412 38.9939 34.8053 39.1096 34.6363C39.5012 34.0712 39.7281 33.5862 39.9105 32.9233C40.044 32.4339 40.0395 31.1436 39.906 30.6453C39.7681 30.1381 39.47 29.5241 39.3677 29.5419C39.3543 29.5419 39.2431 29.5774 39.1185 29.613Z" fill="#DF6751"/>
<path d="M42.7714 30.3293C42.758 30.3516 42.7758 30.5874 42.8114 30.8544C43.0695 32.7898 42.5356 34.7074 41.2987 36.3359C41.1251 36.5583 40.8582 37.0878 40.7603 37.3992C40.391 38.5605 40.44 39.922 40.8893 41.061C41.0762 41.5326 41.0895 41.5504 41.2675 41.5504C41.5078 41.5504 42.0906 41.3546 42.3665 41.1811C42.6245 41.021 43.1006 40.6428 43.2563 40.4737C43.4566 40.2646 43.8214 39.7885 43.8703 39.6817C43.8881 39.6461 43.9415 39.5527 43.986 39.4815C44.035 39.4059 44.1462 39.1967 44.2352 39.0143C44.3286 38.8319 44.4176 38.645 44.4398 38.6005C44.5066 38.4715 44.778 37.6306 44.8492 37.3236C45.1428 36.1001 45.1384 34.8409 44.8358 33.6085C44.8047 33.4839 44.7513 33.3193 44.7202 33.2392C44.6846 33.1591 44.6579 33.0657 44.6579 33.0301C44.6579 32.9722 44.6267 32.8877 44.4487 32.4739C44.1284 31.7398 43.6345 31.0056 43.1629 30.5652C42.8782 30.2982 42.8159 30.2582 42.7714 30.3293Z" fill="#DF6751"/>
<path d="M54.3884 46.6271C54.3484 46.6894 54.295 46.9029 54.2728 47.1121C54.2283 47.5258 54.1971 47.5703 53.8901 47.6549C53.7922 47.6816 53.5119 47.7617 53.2672 47.8328C53.0225 47.8996 52.7111 47.993 52.5776 48.0286C52.4441 48.0687 52.2439 48.1265 52.1327 48.1576C52.0214 48.1888 51.8034 48.2511 51.6432 48.2911C51.4831 48.3356 51.2739 48.3935 51.1761 48.4246C51.0782 48.4557 50.8691 48.518 50.7089 48.5581C50.5487 48.6026 50.3396 48.6604 50.2417 48.6916C50.1438 48.7227 49.9347 48.785 49.7745 48.825C49.6144 48.8695 49.4097 48.9318 49.3163 48.963C49.2273 48.9986 49.1072 49.0252 49.0582 49.0252C48.9336 49.0252 48.7423 49.2166 47.3942 50.7382C46.9493 51.2365 46.7668 51.4412 46.3575 51.895C46.1573 52.113 45.9927 52.3311 45.9927 52.3756C45.9927 52.4334 47.4876 54.4934 47.8124 54.8805C47.8302 54.9072 47.9281 55.0362 48.0215 55.1697C48.1194 55.3032 48.2306 55.45 48.2707 55.4989C48.3107 55.5479 48.5109 55.8148 48.7156 56.0862C48.9203 56.3621 49.2762 56.8382 49.5076 57.1496C49.7389 57.4611 49.9926 57.7992 50.0637 57.906C50.1394 58.0083 50.2506 58.1596 50.3129 58.2441C50.3752 58.3242 50.6733 58.7247 50.9803 59.134C51.5409 59.8948 51.6477 59.9883 51.7278 59.7791C51.75 59.7257 51.8212 59.6056 51.8835 59.5122C51.9458 59.4187 51.9992 59.3342 51.9992 59.3209C51.9992 59.312 52.0526 59.2185 52.1193 59.1117C52.186 59.0094 52.2661 58.8804 52.2973 58.8225C52.3284 58.7647 52.8089 57.9594 53.3651 57.025C54.4507 55.2097 54.424 55.2453 54.8156 55.183C54.8957 55.1697 55.0692 55.1341 55.2027 55.0985C55.3361 55.0674 55.5808 55.0051 55.7499 54.9695C55.9145 54.9294 56.1815 54.8671 56.3506 54.8271C56.5152 54.7915 56.7599 54.7337 56.8934 54.6981C57.1247 54.6402 57.3694 54.5824 58.0413 54.4267C58.2059 54.3911 58.4417 54.3288 58.5663 54.2932C58.6909 54.2576 58.8288 54.2309 58.8733 54.2309C59.0646 54.2309 60.0835 53.9105 59.9945 53.8794C59.9545 53.8616 59.2292 52.9184 58.375 51.7793C57.5252 50.6403 56.7821 49.6526 56.7288 49.577C56.6709 49.5058 56.5641 49.3589 56.484 49.2477C56.4084 49.1365 56.3328 49.0386 56.315 49.0252C56.2705 48.9897 54.7088 46.8851 54.5175 46.6048C54.4596 46.5203 54.4552 46.5203 54.3884 46.6271Z" fill="#DF6751"/>
<path d="M25.437 46.6182C25.437 46.6538 23.9376 48.6827 23.7107 48.9585C23.6662 49.0075 23.5594 49.1543 23.4615 49.2878C23.3681 49.4212 23.2702 49.5503 23.248 49.577C23.2035 49.6304 20.2314 53.6036 20.089 53.7993L20 53.9195L20.1646 53.9906C20.2536 54.0262 20.3871 54.0663 20.4672 54.0796C20.5473 54.093 20.7297 54.133 20.8765 54.1686C21.4238 54.311 21.6418 54.3599 21.9666 54.4311C22.149 54.4712 22.3804 54.5246 22.4782 54.5513C22.7141 54.6135 23.1456 54.7159 23.3681 54.7604C23.466 54.7826 23.6484 54.8227 23.7685 54.8538C23.8931 54.8805 24.1022 54.9339 24.2357 54.965C24.3692 54.9962 24.5828 55.0496 24.7029 55.0763C24.8275 55.1074 25.0232 55.1519 25.1478 55.1742C25.2679 55.1964 25.4192 55.2453 25.4815 55.2765C25.566 55.321 25.8997 55.8415 26.6116 57.0339C27.1722 57.9683 27.6483 58.7781 27.6794 58.8315C27.7061 58.8804 27.7862 59.0094 27.853 59.1118C27.9197 59.2185 27.9731 59.312 27.9731 59.3209C27.9731 59.3342 28.0265 59.4188 28.0888 59.5122C28.1511 59.6056 28.2223 59.7258 28.2445 59.7791C28.3246 59.9883 28.4314 59.8948 28.9964 59.1385C29.3034 58.7291 29.5882 58.342 29.6327 58.2797C29.7795 58.0706 31.0297 56.3888 31.4658 55.8148C31.5637 55.6858 31.6882 55.5212 31.7416 55.45C31.795 55.3788 31.9063 55.232 31.9863 55.1252C32.0664 55.0184 32.1643 54.8894 32.1999 54.836C32.2355 54.7826 32.6537 54.2265 33.1209 53.5991C33.5925 52.9673 33.9796 52.4156 33.9796 52.3756C33.9796 52.3311 33.8239 52.1264 33.6326 51.9173C33.4457 51.7082 33.1521 51.3789 32.9785 51.1832C32.8095 50.9918 32.3111 50.4401 31.8796 49.9552L31.0876 49.0786L30.7672 48.9852C30.5893 48.9363 30.3446 48.8651 30.22 48.8295C29.8551 48.7227 29.5704 48.6382 29.2634 48.5581C29.1032 48.5136 28.8941 48.4558 28.7962 48.4246C28.6983 48.3935 28.4892 48.3312 28.329 48.2911C28.1689 48.2466 27.9597 48.1888 27.8619 48.1576C27.764 48.1265 27.5549 48.0642 27.3947 48.0242C27.2345 47.9841 27.0254 47.9218 26.9275 47.8951C26.7006 47.824 26.3091 47.7127 26.0822 47.6504C25.7796 47.5703 25.744 47.5259 25.6995 47.1165C25.6773 46.9119 25.6372 46.7072 25.6105 46.6627C25.566 46.5782 25.437 46.5426 25.437 46.6182Z" fill="#DF6751"/>
</svg>
