<svg width="80" height="80" viewBox="0 0 80 80" fill="none" xmlns="http://www.w3.org/2000/svg">
<rect width="80" height="80" rx="10" fill="#FEF8F1"/>
<path d="M24.4044 28.0859C24.12 28.2148 23.8578 28.5081 23.7644 28.797C23.7022 29.0059 23.6889 29.2326 23.6889 30.3792V31.7214H22.8933C22.1867 31.7214 22.0756 31.7303 21.8889 31.8148C21.6133 31.9392 21.3511 32.1792 21.2444 32.4148C21.08 32.7703 21.1467 33.3437 21.3867 33.6326C21.4844 33.7481 21.7956 33.9703 21.9111 34.0103C21.9733 34.0326 23.5111 34.0637 25.3333 34.077L28.6444 34.0992L28.8311 34.197C29.3911 34.4992 29.5378 35.2192 29.1644 35.8237C29.0578 35.9926 28.7778 36.2103 28.5778 36.2815C28.5156 36.2992 26.7378 36.3303 24.6222 36.3437L20.7778 36.3659L20.5689 36.4903C20.1556 36.7392 20 37.0237 20 37.5303C20 38.0148 20.1956 38.3392 20.6222 38.5615L20.8044 38.6548H26.2533C32.5289 38.6548 32.0578 38.6237 32.4844 39.0503C32.6711 39.237 32.7467 39.3526 32.7911 39.5126C32.9156 39.9837 32.8267 40.317 32.4844 40.6592C32.0578 41.0859 32.5289 41.0548 26.2533 41.0548H20.8044L20.6222 41.1481C20.1956 41.3703 20 41.6948 20 42.1792C20 42.6859 20.1556 42.9703 20.5689 43.2192L20.7778 43.3437L22.2222 43.3659L23.6667 43.3881L23.6889 45.2548C23.7156 47.277 23.72 47.3081 23.9689 47.6103C24.1467 47.8281 24.3778 47.9659 24.6578 48.0281C24.8 48.0548 25.3556 48.077 26.04 48.077C27.28 48.077 27.2578 48.0726 27.3022 48.3215C27.3689 48.7126 27.7067 49.3926 28.0667 49.8681C28.6844 50.6904 29.48 51.2148 30.5778 51.5259C30.8089 51.5926 31.0222 51.6104 31.6444 51.6104C32.5867 51.6104 32.8978 51.5392 33.6667 51.1526C34.6978 50.637 35.5689 49.6281 35.8844 48.5881C35.9289 48.4415 35.9867 48.2726 36.0178 48.2103L36.0711 48.0992H42H47.9289L48.0489 48.4681C48.5022 49.8637 49.4622 50.8726 50.8222 51.3792C51.3644 51.5837 51.56 51.6104 52.3778 51.6104C53.1556 51.6059 53.1911 51.6015 53.6133 51.4637C54.3778 51.2148 54.8756 50.9259 55.4089 50.4148C56.0044 49.8548 56.48 49.0726 56.6667 48.3659C56.6889 48.2681 56.7244 48.1659 56.7467 48.1348C56.7689 48.0992 57.1067 48.077 57.8889 48.0637C58.5689 48.0548 59.0622 48.0281 59.16 47.997C59.3733 47.9259 59.7156 47.6237 59.8267 47.4059C59.8756 47.3081 59.9333 47.2326 59.9556 47.2326C59.9867 47.2326 60 45.7926 60 43.1659C60 39.6948 59.9911 39.0992 59.9378 39.0992C59.8978 39.0992 59.8622 39.0281 59.8444 38.9081C59.8089 38.6548 59.5733 38.1081 59.3733 37.8103C59.0667 37.3526 58.5644 36.9348 58 36.6726C57.5022 36.437 57.3111 36.3703 56.7556 36.2415C56.6267 36.2148 54.8 36.1881 51.7289 36.1703L46.9067 36.1437L46.7244 36.0237C46.5244 35.8903 46.2533 35.5792 46.1956 35.4103C46.1733 35.3481 46.1467 33.6592 46.1333 31.6548L46.1111 28.0103L35.3556 28.0014C24.6667 27.997 24.6 27.997 24.4044 28.0859ZM32.3333 45.1303C32.92 45.3615 33.3556 45.757 33.5911 46.277C33.9244 47.0103 33.7822 47.9526 33.24 48.5792C32.8667 49.0148 32.2 49.3215 31.64 49.3215C31.3422 49.3215 30.8578 49.1659 30.44 48.9392C30.2578 48.8415 29.8578 48.3881 29.7156 48.1215C29.4044 47.5259 29.44 46.6059 29.8044 46.0281C30.1022 45.5526 30.72 45.1392 31.2667 45.0548C31.5689 45.0059 32.1156 45.0415 32.3333 45.1303ZM52.6933 45.0503C53.0889 45.1081 53.5156 45.3259 53.8178 45.6237C53.96 45.7615 54.0889 45.9081 54.1067 45.9437C54.12 45.9792 54.1778 46.077 54.2267 46.1615C54.7378 47.0059 54.4622 48.2459 53.6311 48.8637C53.36 49.0637 53.2311 49.1259 52.8444 49.237C52.4844 49.3437 52.24 49.3437 51.8444 49.237C51.4356 49.1259 51.1156 48.9437 50.8133 48.6503C50.3867 48.2326 50.2222 47.8192 50.2222 47.1659C50.2222 46.3659 50.5244 45.7881 51.1511 45.3926C51.6756 45.0637 52.1067 44.9659 52.6933 45.0503Z" fill="#EFB16E"/>
<path d="M48.4981 31.0416L48.5115 33.8327L51.6626 33.8461C53.4093 33.8505 54.8359 33.8372 54.8581 33.815C54.8893 33.7839 54.6315 33.3127 54.2937 32.7883C53.5026 31.5661 53.1426 31.0905 52.5381 30.4638C51.9337 29.8372 51.3204 29.3661 50.6493 29.0105C50.027 28.6861 48.8537 28.255 48.587 28.255H48.4893L48.4981 31.0416Z" fill="#EFB16E"/>
</svg>
