<svg width="56" height="56" viewBox="0 0 56 56" fill="none" xmlns="http://www.w3.org/2000/svg">
<rect width="56" height="56" rx="10" fill="#041434"/>
<path d="M19.1644 13.3275C18.8942 13.356 18.6276 13.4164 18.4427 13.4947C18.3787 13.5231 18.304 13.5444 18.2756 13.5444C18.2507 13.5444 18.1831 13.5658 18.1262 13.5942C17.4756 13.9071 17.3902 13.9569 17.0667 14.1987C16.6791 14.4831 16.5867 14.5756 16.2667 14.9844C15.9609 15.3755 15.7476 15.5924 15.552 15.7062C15.3991 15.7987 15.3138 15.8022 15.2071 15.7276C15.1573 15.692 15.0542 15.6707 14.944 15.6707C14.784 15.6742 14.7449 15.6884 14.6347 15.8022L14.5067 15.9267L14.5102 16.364C14.5138 16.6982 14.5351 16.8547 14.592 17.0431C14.688 17.356 14.848 17.6689 15.0329 17.9178C15.1609 18.0884 15.1822 18.1418 15.1929 18.3267C15.2071 18.5436 15.2071 18.5436 15.0471 18.7071C14.6809 19.084 14.5387 19.6849 14.6987 20.1791C14.8124 20.5275 14.9156 20.6804 15.1893 20.9009C15.3138 21.0004 15.3493 21.0609 15.4133 21.2742C15.4524 21.4129 15.5129 21.5907 15.5413 21.6689C15.6053 21.8253 15.9218 22.4795 15.9929 22.5933C16.0747 22.7249 16.4587 23.2333 16.576 23.3684C16.6436 23.4431 16.6862 23.5178 16.6756 23.5356C16.6649 23.5533 16.4942 23.6173 16.2916 23.6813C15.9822 23.7773 15.1964 24.0333 14.7733 24.1791C14.5067 24.2715 14.3893 24.3142 14.1369 24.4209C13.9947 24.4813 13.8631 24.5311 13.8453 24.5311C13.8169 24.5311 13.4791 24.684 13.0311 24.8973C12.5476 25.1284 12.1849 25.5267 12.0391 25.9924C12.0107 26.0813 12 26.7675 12 28.268C12.0036 30.3231 12.0036 30.4191 12.0711 30.4973C12.2276 30.6858 12.1351 30.6822 15.5662 30.6822C17.9876 30.6822 18.752 30.6929 18.784 30.7249C18.848 30.7889 18.8444 38.3587 18.784 38.4404C18.7591 38.4724 18.6489 38.5293 18.5422 38.5684C18.0978 38.732 17.7422 38.988 17.4649 39.3507C17.3013 39.5675 17.0844 39.9907 17.0844 40.0973C17.0844 40.1364 17.056 40.1898 17.0204 40.2218C16.96 40.2751 16.7502 40.2822 14.7093 40.2822C12.6044 40.2822 12.4622 40.2858 12.4373 40.3427C12.4196 40.3782 12.4124 40.5773 12.4196 40.7871L12.4302 41.1711H14.7022C16.7182 41.1711 16.9778 41.1782 17.0276 41.228C17.0596 41.2564 17.0844 41.3133 17.0844 41.3524C17.0844 41.4627 17.2978 41.8858 17.4613 42.0956C17.792 42.5258 18.0836 42.732 18.6311 42.9204C18.9476 43.0271 19.6124 43.0271 19.9324 42.9169C20.3698 42.764 20.6364 42.6004 20.9387 42.2947C21.1662 42.0636 21.4578 41.5516 21.4578 41.3809C21.4578 41.3418 21.4898 41.2813 21.5289 41.2422C21.6 41.1711 21.6462 41.1711 27.9644 41.1711C34.2827 41.1711 34.3289 41.1711 34.4 41.2422C34.4391 41.2813 34.4711 41.3418 34.4711 41.3809C34.4711 41.5516 34.7627 42.0636 34.9902 42.2947C35.2924 42.6004 35.5591 42.764 36 42.9169C36.32 43.0271 36.9422 43.0271 37.28 42.9204C37.8204 42.7498 38.1298 42.5364 38.4676 42.0956C38.6311 41.8858 38.8444 41.4627 38.8444 41.3524C38.8444 41.3133 38.8693 41.2564 38.9013 41.228C38.9511 41.1782 39.2107 41.1711 41.2267 41.1711H43.4987L43.5093 40.7764C43.5164 40.5596 43.5058 40.3604 43.4916 40.332C43.4667 40.2893 43.1182 40.2822 41.2089 40.2822C39.2071 40.2822 38.9511 40.2751 38.9013 40.2253C38.8693 40.1969 38.8444 40.14 38.8444 40.1009C38.8444 39.9907 38.6311 39.5675 38.464 39.3507C38.176 38.9738 37.7387 38.668 37.2907 38.5329C37.1947 38.5044 37.1342 38.4618 37.1236 38.4155C37.1129 38.3764 37.1022 36.6413 37.1022 34.5542C37.1022 31.6564 37.1129 30.7569 37.1449 30.7249C37.1769 30.6929 37.9413 30.6822 40.3627 30.6822C43.8364 30.6822 43.6658 30.6929 43.8862 30.4724L44 30.3551V28.2076C44 26.3338 43.9929 26.06 43.9467 26.06C43.9182 26.06 43.8862 26.0173 43.872 25.9604C43.7902 25.58 43.3849 25.132 42.9156 24.908C42.3929 24.6591 42.1084 24.5311 42.0764 24.5311C42.0551 24.5311 41.9947 24.5098 41.9449 24.4813C41.8916 24.4529 41.7778 24.4031 41.6889 24.3711C41.6 24.3391 41.4756 24.2893 41.4116 24.2609C41.3476 24.2324 41.28 24.2111 41.2587 24.2111C41.2373 24.2111 41.1698 24.1898 41.1093 24.1613C40.9884 24.1115 40.4978 23.9409 40.32 23.8911C39.8898 23.7702 39.2924 23.5711 39.264 23.5427C39.2427 23.5213 39.2711 23.4609 39.3493 23.372C39.4738 23.2333 39.8578 22.7213 39.936 22.5933C40.032 22.4333 40.3378 21.8076 40.3378 21.7684C40.3378 21.7435 40.3591 21.6724 40.3876 21.6084C40.416 21.5444 40.4658 21.3916 40.5013 21.2671C40.5547 21.0751 40.5867 21.0253 40.7573 20.8796C41.0809 20.6022 41.2978 20.1649 41.2978 19.7844C41.2978 19.5391 41.1484 19.0662 41.0169 18.9062C40.9564 18.828 40.96 18.5649 41.0311 18.1667C41.1129 17.6938 41.1058 16.4422 41.0169 16.0795C40.9244 15.724 40.8782 15.5996 40.736 15.3542C40.4658 14.8849 39.968 14.6289 39.36 14.6538L39.0756 14.6644L38.9511 14.4333C38.7876 14.1276 38.3573 13.7009 38.0871 13.5693C37.664 13.3667 37.4471 13.3204 36.9067 13.324C36.2702 13.3275 35.8684 13.4235 35.2284 13.7222C34.5529 14.0387 34.0231 14.4724 33.5573 15.084C33.2907 15.436 33.0453 15.6635 32.8356 15.7489C32.7324 15.7915 32.704 15.7915 32.6151 15.7382C32.5511 15.7027 32.4338 15.6778 32.3164 15.6778C32.1564 15.6778 32.1067 15.6956 32.0107 15.7809L31.8933 15.884L31.8969 16.3604C31.8969 16.7409 31.9147 16.8796 31.9751 17.0787C32.0889 17.4307 32.288 17.8076 32.4764 18.0209C32.5298 18.0813 32.5511 18.1595 32.5547 18.2875C32.5618 18.5507 32.5582 18.5613 32.4267 18.7C32.1458 18.9987 32.0178 19.3258 32.0178 19.7489C32.0178 20.2324 32.1991 20.6164 32.5689 20.9187C32.6578 20.9933 32.7396 21.0929 32.7502 21.1462C32.8996 21.7898 33.3084 22.5827 33.7991 23.1978C33.9342 23.3649 34.0444 23.5142 34.0444 23.5284C34.0444 23.5533 33.8667 23.6173 33.4578 23.7418C33.2871 23.7915 33.1911 23.8235 32.9067 23.9231C32.8391 23.948 32.736 23.9836 32.6756 23.9978C32.544 24.0369 32.0356 24.2147 31.7689 24.3178C31.6622 24.3604 31.5342 24.4067 31.4844 24.4244C31.3173 24.4778 30.7911 24.7124 30.4213 24.8973C30.0124 25.1 29.7849 25.292 29.5929 25.6013C29.3476 25.9924 29.3511 25.9427 29.3511 28.2716C29.3511 30.3516 29.3511 30.3693 29.4258 30.476C29.4684 30.5329 29.5431 30.6004 29.5964 30.6218C29.664 30.6538 30.5493 30.668 32.9244 30.6822L36.16 30.7L36.1707 34.5862C36.1778 38.2627 36.1742 38.4724 36.1173 38.4902C35.6089 38.6502 35.1787 38.9275 34.8907 39.276C34.7129 39.4929 34.4711 39.9444 34.4711 40.0653C34.4711 40.108 34.4391 40.172 34.4 40.2111C34.3289 40.2822 34.2827 40.2822 27.9644 40.2822C21.6462 40.2822 21.6 40.2822 21.5289 40.2111C21.4898 40.172 21.4578 40.1116 21.4578 40.0724C21.4578 40.0369 21.4222 39.9302 21.3831 39.8342C21.0951 39.1836 20.5653 38.7284 19.8116 38.4902C19.7547 38.4724 19.7511 38.2627 19.7582 34.5862L19.7689 30.7L23.0044 30.6822C25.3796 30.668 26.2649 30.6538 26.3324 30.6218C26.3858 30.6004 26.4604 30.5329 26.5031 30.476C26.5778 30.3693 26.5778 30.3516 26.5778 28.2787C26.5778 25.9569 26.5813 25.9924 26.336 25.6013C26.1298 25.2707 25.9236 25.1035 25.4187 24.8547C24.9351 24.62 24.8427 24.5773 24.5867 24.4778C24.4978 24.4458 24.3876 24.3995 24.3378 24.3818C24.288 24.3604 24.2098 24.332 24.16 24.3178C24.1102 24.3 23.9822 24.2538 23.8756 24.2111C23.6942 24.1436 22.8124 23.8484 22.4533 23.7347C21.9769 23.5889 21.8844 23.5533 21.8844 23.5249C21.8844 23.5035 21.9591 23.404 22.048 23.2973C22.2898 23.0129 22.6347 22.4831 22.7982 22.1453C22.9476 21.836 23.1644 21.2244 23.1644 21.1142C23.1644 21.0787 23.2071 21.0218 23.2569 20.9862C23.5556 20.7764 23.7369 20.5382 23.8507 20.2111C23.9751 19.852 23.9076 19.3507 23.6907 18.9738C23.5733 18.7747 23.5662 18.6538 23.648 18.2556C23.6907 18.0458 23.7049 17.7542 23.7084 17.1355C23.712 16.3853 23.7049 16.2715 23.6373 16.0333C23.5271 15.6458 23.4809 15.5391 23.3493 15.3329C23.0507 14.8636 22.5849 14.6324 22.0018 14.6502L21.7031 14.6609L21.6 14.4867C21.5431 14.3871 21.4827 14.2769 21.4649 14.2342C21.4258 14.1524 21.1378 13.8609 20.9778 13.74C20.7964 13.6049 20.5298 13.4698 20.3022 13.4022C20.0569 13.3275 19.5236 13.292 19.1644 13.3275ZM19.9751 14.2698C20.2276 14.3373 20.3378 14.3942 20.5404 14.572C20.7111 14.7249 20.9244 15.0982 20.9244 15.2476C20.9244 15.3933 21.056 15.5924 21.1947 15.66C21.344 15.7311 21.5644 15.7169 21.7422 15.6244C21.888 15.5498 22.2684 15.5533 22.3893 15.6351C22.5849 15.7631 22.7058 16.0013 22.7769 16.4067C22.8338 16.7231 22.8409 17.356 22.7876 17.3738C22.7662 17.3809 22.6631 17.3169 22.5564 17.2351C22.3396 17.0609 22.2791 17.0253 22.08 16.9293C21.1484 16.4849 20.288 16.5489 19.3849 17.1284C18.9582 17.4022 18.6133 17.5729 18.1156 17.7578C17.6604 17.9249 16.9564 17.9676 16.5511 17.8502C16.0533 17.708 15.7653 17.4769 15.5769 17.0751C15.4524 16.8155 15.4631 16.6662 15.6089 16.6342C15.808 16.588 15.9644 16.5169 16.1956 16.364C16.5333 16.1436 16.6187 16.0582 16.928 15.6422C17.3547 15.0733 17.5964 14.8707 18.2258 14.5649C18.88 14.2484 19.4951 14.1453 19.9751 14.2698ZM37.3084 14.2591C37.4898 14.3018 37.6676 14.38 37.8204 14.4831C37.92 14.5471 38.2044 14.9027 38.2044 14.9596C38.2044 14.9809 38.2293 15.0413 38.2578 15.0947C38.2862 15.1516 38.3111 15.2404 38.3111 15.2902C38.3111 15.34 38.3573 15.4467 38.4178 15.5284C38.5564 15.7204 38.7342 15.7524 39.04 15.6458C39.3031 15.5533 39.6444 15.5462 39.7689 15.6315C39.9609 15.7631 40.0711 15.9942 40.1422 16.4067C40.2027 16.7338 40.2133 17.3347 40.16 17.3667C40.1422 17.3773 40.0178 17.3027 39.8862 17.2031C39.4418 16.8618 38.8053 16.6378 38.2756 16.6378C37.7991 16.6378 37.2267 16.8191 36.7644 17.1213C36.4907 17.2955 36.3164 17.3951 36.0711 17.5124C35.9644 17.5622 35.8471 17.6191 35.8116 17.6369C35.5164 17.7898 34.9156 17.9178 34.496 17.9178C34.1333 17.9178 33.92 17.8715 33.568 17.7222C33.1058 17.5267 32.6222 16.6378 32.9778 16.6378C33.0773 16.6378 33.3653 16.4991 33.6213 16.332C33.9022 16.1471 34.1191 15.9231 34.3431 15.5818C34.9227 14.7 36.3947 14.0422 37.3084 14.2591ZM21.1769 17.5942C21.4329 17.6262 21.7564 17.7649 21.9662 17.9284C22.208 18.1169 22.5244 18.5933 22.5244 18.7711C22.5244 18.9027 22.6453 19.1444 22.7947 19.3116C23.0507 19.5996 23.0507 19.9551 22.7947 20.1791C22.4071 20.5169 22.432 20.4778 22.208 21.1711C21.9804 21.8609 21.6818 22.3551 21.1769 22.8636C20.8498 23.1907 20.5831 23.3755 20.2596 23.5107C19.9431 23.6387 19.8329 23.6742 19.5662 23.7311C19.3102 23.788 19.2747 23.788 19.0151 23.7347C18.3751 23.596 17.8702 23.34 17.408 22.9169C17.1093 22.6395 16.6436 21.9391 16.4693 21.5018C16.352 21.2102 16.2311 20.8369 16.2311 20.7587C16.2311 20.6662 15.9573 20.3107 15.8222 20.2289C15.6267 20.108 15.5804 20.012 15.584 19.7311V19.4822L15.7973 19.2511C15.9147 19.1231 16.0178 18.9738 16.0284 18.9204C16.0391 18.8671 16.0711 18.7924 16.0996 18.7533C16.1458 18.6929 16.1671 18.6893 16.2738 18.7249C16.3378 18.7462 16.5547 18.7853 16.7573 18.8102C17.3013 18.8742 17.9769 18.7889 18.5778 18.5756C18.8231 18.4867 19.5307 18.1276 19.7724 17.964C20.0889 17.7542 20.3804 17.6262 20.6044 17.5978C20.8818 17.5622 20.9138 17.5622 21.1769 17.5942ZM38.8267 17.6547C39.4382 17.8964 39.7973 18.2982 39.9147 18.8742C39.9324 18.9596 39.9893 19.084 40.0427 19.1516C40.3378 19.5178 40.3378 19.5142 40.3378 19.756C40.3378 20.0333 40.3093 20.0867 40.1067 20.2289C39.9431 20.3427 39.6978 20.6627 39.6978 20.7658C39.6978 20.9222 39.36 21.7791 39.1893 22.06C39.104 22.1987 38.7236 22.7036 38.6169 22.8209C38.4427 23.0093 37.9947 23.3329 37.7422 23.4538C37.4044 23.6173 37.2587 23.6635 36.9316 23.7311C36.6542 23.788 36.6187 23.788 36.3627 23.7311C36.1031 23.6742 36.0071 23.6422 35.6622 23.5071C35.2498 23.3435 34.7129 22.8991 34.3609 22.4298C34.1227 22.1098 33.8276 21.5231 33.7067 21.1355C33.5111 20.5027 33.5218 20.5169 33.1307 20.1756C33.0133 20.0724 32.9778 20.0156 32.9564 19.8911C32.9173 19.6138 32.9636 19.4822 33.1947 19.2155C33.3084 19.0804 33.4044 18.9453 33.4044 18.9133C33.4044 18.8067 33.5147 18.6929 33.5964 18.7142C33.7458 18.7604 34.3431 18.8422 34.5031 18.8422C34.7236 18.8422 35.3707 18.7498 35.5911 18.6858C36 18.5684 36.3236 18.4298 36.8711 18.1311C36.9884 18.0671 37.1093 17.996 37.1378 17.9711C37.2231 17.9 37.536 17.7258 37.6711 17.6724C37.9698 17.5587 38.5493 17.548 38.8267 17.6547ZM18.0267 24.3853C18.5031 24.5738 18.72 24.6307 19.0578 24.6556C19.5698 24.6982 20.0924 24.5916 20.6827 24.3249C20.8711 24.2431 20.8996 24.2395 21.0382 24.2787C21.1236 24.3036 21.28 24.3498 21.3867 24.3782C21.4933 24.4102 21.6462 24.4529 21.7244 24.4778C21.8027 24.4991 21.9556 24.5453 22.0622 24.5773C23.7476 25.0858 25.1378 25.6476 25.4471 25.9462C25.6818 26.1702 25.6889 26.2307 25.6889 28.0582C25.6889 29.2671 25.6782 29.6831 25.6462 29.7151C25.6142 29.7471 25.312 29.7578 24.5084 29.7578C23.9076 29.7578 23.4098 29.7542 23.4062 29.7471C23.4027 29.7436 23.3884 29.132 23.3778 28.3889L23.36 27.0378L22.9724 27.0271C22.72 27.02 22.5707 27.0307 22.5387 27.0591C22.496 27.0911 22.4889 27.3293 22.4889 28.3889C22.4889 29.4307 22.4782 29.6867 22.4391 29.7187C22.4036 29.7471 21.5431 29.7542 19.2498 29.7507L16.1067 29.74L16.096 28.4458C16.0924 27.5427 16.0747 27.1373 16.0462 27.1018C16.0178 27.0662 15.9111 27.0556 15.5947 27.0627L15.1822 27.0733L15.1644 28.4067L15.1467 29.74H14.0267H12.9067V27.98V26.22L13.0062 26.0707C13.0596 25.9853 13.1627 25.8822 13.2373 25.836C13.4613 25.6938 14.0764 25.42 14.6062 25.2209C14.8693 25.1213 15.0258 25.0644 15.1573 25.0147C15.2284 24.9862 15.3707 24.94 15.4667 24.908C15.5662 24.876 15.7902 24.8049 15.9644 24.748C16.1422 24.6875 16.4516 24.5916 16.6578 24.5311C16.864 24.4707 17.1129 24.3995 17.2089 24.3711C17.3653 24.3249 17.6036 24.2609 17.6533 24.2502C17.664 24.2467 17.8311 24.3107 18.0267 24.3853ZM35.264 24.332C35.616 24.492 35.7191 24.5311 35.7796 24.5311C35.8116 24.5311 35.9111 24.5595 36 24.5916C36.1173 24.6342 36.2844 24.6484 36.6222 24.6484C37.1378 24.652 37.3902 24.5987 37.9484 24.3711L38.2649 24.2431L38.4676 24.2964C38.5813 24.3284 38.7236 24.3675 38.784 24.3853C38.848 24.4067 38.9796 24.4458 39.0756 24.4742C39.3707 24.556 39.9929 24.748 40.1244 24.7978C40.192 24.8227 40.352 24.876 40.48 24.9187C40.608 24.9578 40.8 25.0253 40.9067 25.0644C41.0133 25.1071 41.1413 25.1533 41.1911 25.1711C41.5253 25.2849 42.2542 25.5942 42.5351 25.7435C42.7769 25.8715 42.9582 26.06 43.0044 26.2413C43.0258 26.3231 43.0364 27.0129 43.0329 28.0547L43.0222 29.74H41.9022H40.7822L40.7716 28.428C40.768 27.532 40.7502 27.1018 40.7253 27.0662C40.672 27.0022 39.9858 27.0022 39.9004 27.0627C39.8471 27.1053 39.84 27.2369 39.8329 28.4244L39.8222 29.74L36.6791 29.7507C34.4036 29.7542 33.5218 29.7471 33.4898 29.7187C33.4507 29.6867 33.44 29.4164 33.4329 28.3747L33.4222 27.0733H32.9956H32.5689L32.5511 28.4067C32.5404 29.1391 32.5262 29.7436 32.5227 29.7471C32.5191 29.7542 32.0213 29.7578 31.4204 29.7578C30.6169 29.7578 30.3147 29.7471 30.2827 29.7151C30.2222 29.6547 30.2222 26.5187 30.2827 26.2875C30.3609 26.0067 30.5138 25.868 31.0436 25.612C31.3031 25.4876 31.5307 25.3844 31.5484 25.3844C31.5662 25.3844 31.6587 25.3489 31.7547 25.3062C32.0249 25.1889 33.248 24.7658 33.8667 24.5809C33.9733 24.5489 34.1013 24.5098 34.1511 24.4956C34.2009 24.4778 34.368 24.4316 34.5244 24.3889C34.6809 24.3462 34.848 24.2964 34.8978 24.2822C35.0364 24.236 35.0684 24.2395 35.264 24.332ZM19.6942 39.4289C20.0533 39.5533 20.3378 39.7987 20.5227 40.1507C20.608 40.3178 20.6187 40.3711 20.6187 40.7267C20.6222 41.1071 20.6187 41.1249 20.5013 41.3418C20.3769 41.5693 20.1138 41.8396 19.9147 41.9427C19.4027 42.2093 18.7342 42.1098 18.3324 41.7116C18.24 41.6191 18.112 41.4378 18.048 41.3062C17.9413 41.0893 17.9307 41.0396 17.9307 40.7338C17.9271 40.4244 17.9378 40.3747 18.0409 40.1684C18.1582 39.9267 18.4071 39.6422 18.592 39.5427C18.944 39.3542 19.3529 39.3116 19.6942 39.4289ZM37.0347 39.4182C37.4187 39.5391 37.7067 39.7916 37.888 40.1649C37.9876 40.3676 37.9982 40.4244 37.9982 40.7302C37.9982 41.0431 37.9876 41.0893 37.8809 41.3062C37.7387 41.6013 37.6036 41.7507 37.3511 41.8929C36.9244 42.1382 36.4302 42.156 36.0142 41.9427C35.8151 41.8396 35.552 41.5693 35.4276 41.3418C35.3102 41.1249 35.3067 41.1036 35.3102 40.7267C35.3102 40.3711 35.3173 40.3178 35.4062 40.1507C35.7298 39.5284 36.4124 39.2227 37.0347 39.4182Z" fill="white"/>
</svg>
