<svg width="56" height="56" viewBox="0 0 56 56" fill="none" xmlns="http://www.w3.org/2000/svg">
<rect width="56" height="56" rx="10" fill="#041434"/>
<path d="M25.5445 12.0467C25.5445 12.0751 25.5125 12.1107 25.4698 12.1213C25.4307 12.1356 25.2778 12.2173 25.132 12.3027C24.9862 12.388 24.8582 12.4591 24.844 12.4591C24.8297 12.4591 24.7942 12.4805 24.7657 12.5089C24.7337 12.5338 24.6306 12.6014 24.531 12.6547C23.5709 13.181 23.482 13.3019 23.482 14.1055C23.482 14.6105 23.5034 14.55 23.1087 15.215C23.0304 15.3501 22.9522 15.4888 22.938 15.5172C22.9238 15.5457 22.8918 15.6026 22.8669 15.6417C22.842 15.6808 22.746 15.8444 22.6535 16.0044C22.5611 16.1609 22.4579 16.3031 22.4224 16.3138C22.3441 16.3422 21.8463 16.6231 21.7539 16.6907C21.6294 16.7831 21.4694 17.0214 21.4161 17.1885C21.3769 17.3094 21.3663 17.5761 21.3663 18.2731C21.3663 18.97 21.3769 19.2367 21.4161 19.3576C21.4694 19.5212 21.6294 19.763 21.7539 19.8554C21.8463 19.9266 22.3477 20.211 22.4188 20.2324C22.4722 20.2502 22.7104 20.6129 22.8313 20.8511C22.8455 20.8795 22.9487 21.0609 23.0624 21.2529C23.1762 21.4414 23.2687 21.605 23.2687 21.6156C23.2687 21.6263 23.3185 21.7116 23.3754 21.8041C23.4785 21.9748 23.482 21.989 23.482 22.4442C23.482 22.9384 23.5176 23.102 23.6741 23.3154C23.7452 23.4114 24.0581 23.6603 24.1079 23.6603C24.1221 23.6603 24.2466 23.7278 24.3852 23.8132C24.5239 23.8985 24.6626 23.9768 24.6911 23.991C24.7195 24.0052 24.7693 24.0301 24.7977 24.0514C25.292 24.375 25.612 24.5137 25.8503 24.5137C26.085 24.5137 26.2521 24.4497 26.6575 24.2043L26.9704 24.0159L27.9732 24.0194C28.8977 24.0194 28.983 24.0265 29.0826 24.0905C29.1431 24.1261 29.2142 24.1688 29.2426 24.183C29.2711 24.1972 29.36 24.2506 29.4382 24.3003C29.9005 24.6061 30.2383 24.5884 30.8321 24.2257C30.9566 24.1474 31.0632 24.087 31.0739 24.087C31.0846 24.087 31.2517 23.991 31.4508 23.8736C31.6464 23.7563 31.8171 23.6603 31.8242 23.6603C31.8669 23.6603 32.1869 23.4007 32.2509 23.3154C32.4074 23.102 32.4429 22.9384 32.4429 22.4442C32.4429 21.989 32.4465 21.9748 32.5496 21.8041C32.6101 21.7116 32.6563 21.6263 32.6563 21.6192C32.6563 21.605 33.0546 20.9116 33.1186 20.8155C33.1399 20.7871 33.1648 20.7373 33.179 20.7089C33.1897 20.6804 33.2537 20.5737 33.3177 20.4742C33.4279 20.2964 33.4742 20.2608 33.9755 19.9799C34.2493 19.827 34.4271 19.6172 34.5089 19.3576C34.5836 19.1229 34.58 17.4161 34.5054 17.1743C34.4094 16.8649 34.1604 16.648 33.5168 16.3173C33.4706 16.2924 33.3959 16.2142 33.3497 16.1466C33.0439 15.6986 32.3683 16.0079 32.5141 16.5307C32.5745 16.7476 32.8305 17.0143 33.1363 17.1743C33.275 17.2454 33.4386 17.345 33.5026 17.3912L33.6164 17.4765V18.266C33.6164 18.6998 33.6022 19.0731 33.5879 19.0909C33.5524 19.1407 33.3888 19.2438 33.1612 19.3647C32.7914 19.5532 32.6634 19.6883 32.3932 20.1933C32.3398 20.2893 32.2651 20.4173 32.226 20.4777C32.1905 20.5346 32.1442 20.6164 32.1229 20.6555C32.1051 20.6946 32.0731 20.7515 32.0518 20.78C31.9736 20.9044 31.6962 21.3916 31.6962 21.4129C31.6962 21.4236 31.6749 21.4592 31.65 21.4876C31.5397 21.6192 31.4793 21.9357 31.4864 22.3446C31.4971 22.7962 31.5077 22.7749 31.1486 22.9633C31.049 23.0167 30.921 23.0913 30.8606 23.1269C30.8037 23.166 30.729 23.2087 30.7005 23.2229C30.6721 23.2371 30.5299 23.3154 30.3876 23.4007C30.2418 23.486 30.0996 23.5536 30.0711 23.5536C30.0427 23.5536 29.9254 23.5003 29.8151 23.4327C29.1964 23.0593 29.1786 23.0558 27.9625 23.0558C26.7464 23.0558 26.7286 23.0593 26.1099 23.4327C25.9996 23.5003 25.8823 23.5536 25.8538 23.5536C25.8254 23.5536 25.6405 23.4611 25.4485 23.3474C25.2564 23.2336 25.0751 23.1304 25.0466 23.1162C25.0182 23.102 24.9613 23.07 24.9222 23.0451C24.8831 23.0202 24.7586 22.9491 24.6484 22.8851C24.499 22.7997 24.4421 22.7428 24.4386 22.6895C24.4386 22.6468 24.4386 22.4619 24.4421 22.277C24.4457 22.0494 24.4279 21.8823 24.3852 21.7436C24.3319 21.5836 24.0617 21.0716 23.8732 20.78C23.8519 20.7515 23.8234 20.6946 23.8056 20.6555C23.7878 20.6164 23.731 20.524 23.6812 20.4493C23.6314 20.3746 23.5887 20.307 23.5887 20.2928C23.5887 20.2822 23.5105 20.1435 23.4145 19.9835C23.2189 19.6634 23.1087 19.5425 22.8953 19.4287C22.5148 19.2261 22.3584 19.1336 22.337 19.0945C22.3228 19.0731 22.3086 18.6998 22.3086 18.2695C22.3086 17.5868 22.3157 17.4765 22.3655 17.4339C22.433 17.377 22.6891 17.2276 22.906 17.1174C23.0376 17.0498 23.3754 16.7156 23.3754 16.648C23.3754 16.6373 23.4963 16.4204 23.6421 16.1751C23.7878 15.9262 23.9087 15.7164 23.9087 15.7093C23.9087 15.7021 24.0012 15.5386 24.115 15.3501C24.3959 14.8736 24.4492 14.6958 24.4386 14.2122C24.435 13.9989 24.4386 13.8068 24.4528 13.7891C24.4635 13.7713 24.5417 13.7179 24.627 13.6753C24.7124 13.629 24.8048 13.5793 24.8333 13.5615C25.0573 13.4228 25.6263 13.0992 25.6511 13.0992C25.6654 13.0992 25.6974 13.0743 25.7223 13.0459C25.7969 12.957 25.8965 12.9854 26.2557 13.2023C26.4583 13.3268 26.6752 13.4264 26.7855 13.4512C27.0308 13.5046 28.8941 13.5046 29.1395 13.4512C29.2497 13.4264 29.4666 13.3268 29.6693 13.2023C30.0285 12.9854 30.128 12.957 30.2027 13.0459C30.2276 13.0743 30.2596 13.0992 30.2774 13.0992C30.2952 13.0992 30.409 13.1597 30.5299 13.2343C30.6543 13.309 30.8499 13.4228 30.9672 13.4868C31.3868 13.7179 31.4828 13.7819 31.4864 13.8388C31.4864 13.8744 31.4864 14.0664 31.4828 14.2691C31.4757 14.7349 31.5646 15.0087 31.7638 15.1474C31.9807 15.2932 32.2403 15.2399 32.4003 15.0159C32.4536 14.9412 32.4572 14.8452 32.4501 14.2904C32.4358 13.3481 32.3718 13.2166 31.7246 12.8396C31.5433 12.733 31.3371 12.6121 31.2695 12.5694C31.2019 12.5303 31.1201 12.484 31.0917 12.4698C31.0632 12.4556 30.9246 12.3774 30.7859 12.2956C30.6472 12.2138 30.5014 12.1356 30.4587 12.1249C30.4161 12.1107 30.3805 12.0751 30.3805 12.0467C30.3805 12.0075 30.3129 11.9969 30.0534 11.9969C29.8756 11.9969 29.7404 12.0075 29.7511 12.0218C29.7831 12.0502 29.7084 12.1391 29.648 12.1391C29.6231 12.1391 29.5413 12.1818 29.4666 12.2316C29.392 12.2814 29.2995 12.3382 29.2604 12.356C29.2213 12.3738 29.1359 12.42 29.0719 12.4591C28.9617 12.5267 28.8906 12.5303 27.9696 12.5338C26.9206 12.5338 26.9597 12.5409 26.6646 12.3525C26.6077 12.3134 26.4726 12.2422 26.3694 12.1889C26.2663 12.1391 26.1703 12.0751 26.1596 12.0467C26.1312 11.972 25.5445 11.9755 25.5445 12.0467Z" fill="white"/>
<path d="M27.2548 15.5346C26.1027 15.8511 25.3061 16.7685 25.1497 17.9562C24.9968 19.1474 25.7044 20.3778 26.8245 20.8649C27.2299 21.0392 27.5144 21.0996 27.9624 21.0996C29.2105 21.0996 30.256 20.3351 30.6578 19.1261C31.0916 17.8388 30.4586 16.3525 29.2247 15.7515C28.5811 15.435 27.8877 15.3604 27.2548 15.5346ZM28.5669 16.4805C29.0434 16.6618 29.4452 17.0103 29.6479 17.4192C29.9679 18.0735 29.9039 18.8274 29.4843 19.3892C29.2319 19.727 28.9332 19.9439 28.542 20.0826C28.2789 20.1715 27.6459 20.1715 27.3828 20.0826C26.0671 19.6203 25.6439 18.0273 26.5685 17.0068C26.7925 16.7614 26.9561 16.6476 27.2868 16.5089C27.493 16.42 27.5641 16.4094 27.9446 16.4094C28.2931 16.4058 28.4069 16.42 28.5669 16.4805Z" fill="white"/>
<path d="M17.7043 20.9508C17.5869 21.0005 17.1531 21.2423 16.8153 21.445C16.7762 21.4699 16.7086 21.5055 16.6624 21.5233C16.5202 21.5908 16.2713 21.8682 16.2321 22.0104C16.2108 22.0887 16.193 22.2842 16.193 22.4478V22.7465L15.9548 23.159C15.8197 23.3866 15.6916 23.6035 15.6703 23.6426C15.6454 23.6817 15.6134 23.7422 15.6028 23.7777C15.5885 23.8133 15.4641 23.9057 15.3254 23.9875C15.0196 24.1618 14.9022 24.2684 14.8062 24.4498C14.7422 24.5742 14.7351 24.656 14.7351 25.3708C14.7351 26.0179 14.7458 26.1708 14.792 26.2669C14.8525 26.3842 15.0871 26.6473 15.1334 26.6473C15.1476 26.6473 15.2472 26.7007 15.3609 26.7682C15.5423 26.8785 15.5992 26.9389 15.6845 27.1096C15.6988 27.1381 15.7983 27.3158 15.905 27.5008C16.1895 27.9844 16.1895 27.9808 16.2001 28.3791C16.2108 28.7169 16.2215 28.7524 16.321 28.8947C16.4242 29.044 16.6695 29.2325 16.9576 29.3854C17.0358 29.4281 17.1816 29.5098 17.2776 29.5667C17.8714 29.9223 18.1097 29.933 18.5755 29.6165L18.7355 29.5098L19.3862 29.4992C19.9801 29.4885 20.0512 29.4956 20.1685 29.5561C20.6806 29.8299 20.7268 29.8477 20.8726 29.8477C21.0895 29.8477 21.2495 29.7765 21.8932 29.3961C22.5012 29.0334 22.583 28.9516 22.6612 28.6209C22.6826 28.5213 22.7004 28.3364 22.6932 28.2084C22.6897 28.027 22.7039 27.9452 22.7608 27.8528C22.7999 27.7852 22.8781 27.6501 22.9315 27.5541C23.248 26.9745 23.3084 26.8962 23.5502 26.7505C23.856 26.5655 23.8774 26.5513 24.0089 26.3664L24.1227 26.21V25.3957C24.1227 24.4996 24.1085 24.4284 23.8809 24.2151C23.7814 24.1191 23.7351 24.0906 23.4649 23.9484C23.3618 23.8951 23.2906 23.8168 23.1982 23.6533C23.1306 23.5324 23.0311 23.3581 22.9777 23.2692C22.7075 22.8105 22.6897 22.7643 22.6968 22.5225C22.7075 22.0033 22.551 21.7188 22.103 21.4664C21.9714 21.3917 21.8363 21.317 21.8043 21.2957C21.7011 21.2317 21.5482 21.1499 21.3135 21.0254C20.9615 20.8405 20.7019 20.8619 20.3357 21.1001C20.1365 21.2317 20.0654 21.2423 19.4325 21.2423C18.8137 21.2423 18.796 21.2388 18.6253 21.1463C18.1026 20.8654 17.9745 20.837 17.7043 20.9508ZM18.2697 22.0318L18.5222 22.1811L19.4289 22.1847H20.3357L20.549 22.0638C20.6664 21.9998 20.7766 21.9322 20.7979 21.9144C20.8584 21.854 20.9402 21.8824 21.2744 22.078C21.4558 22.1847 21.6194 22.2736 21.6336 22.2736C21.7047 22.2736 21.7403 22.398 21.7545 22.7038C21.7651 23.0345 21.7829 23.0808 21.9714 23.4043C21.9927 23.4363 22.0958 23.6177 22.2025 23.8026C22.3092 23.9875 22.4159 24.1724 22.4408 24.2115C22.4657 24.2506 22.5012 24.3182 22.519 24.3573C22.5652 24.4569 22.8177 24.6667 23.0204 24.7769L23.1804 24.8623L23.1911 25.3601L23.2017 25.8615L22.9777 25.9895C22.7608 26.1139 22.5226 26.3131 22.5226 26.3664C22.5226 26.3806 22.4301 26.5513 22.3163 26.7433C22.2025 26.9354 22.0994 27.1167 22.0852 27.1452C22.071 27.1736 22.0283 27.2447 21.9927 27.3052C21.8007 27.6003 21.7723 27.6963 21.7509 28.0448L21.7296 28.3968L21.5909 28.4822C21.5162 28.532 21.3953 28.6031 21.3207 28.6422C21.2495 28.6813 21.1429 28.7453 21.0824 28.7809C20.9295 28.8733 20.8904 28.8698 20.5917 28.7098L20.325 28.5675H19.4254H18.5222L18.2483 28.724L17.9745 28.8804L17.6972 28.7204C17.5443 28.6315 17.3594 28.5284 17.2847 28.4893C17.1353 28.4075 17.1282 28.3862 17.1069 27.963C17.0891 27.6679 17.0856 27.6501 16.8722 27.2874C16.7513 27.0812 16.6411 26.8891 16.6197 26.8607C16.602 26.8322 16.5557 26.7469 16.5166 26.6758C16.3104 26.2989 16.1504 26.1282 15.8374 25.9575C15.7699 25.9184 15.7023 25.8721 15.6881 25.8508C15.6525 25.801 15.6525 24.9334 15.6881 24.8872C15.7023 24.8658 15.7734 24.8196 15.8517 24.7805C16.0899 24.656 16.2962 24.4427 16.4704 24.144C16.5628 23.9875 16.6553 23.8239 16.6802 23.7848C16.7051 23.7457 16.7371 23.6888 16.7513 23.6604C16.7655 23.6319 16.8473 23.4861 16.9327 23.3403C17.0856 23.0843 17.0927 23.0594 17.1105 22.7287C17.1211 22.4762 17.1425 22.3696 17.1816 22.3376C17.2883 22.2451 17.9176 21.8824 17.9674 21.8824C17.9959 21.8824 18.131 21.95 18.2697 22.0318Z" fill="white"/>
<path d="M19.0016 23.3086C18.4042 23.4615 17.9597 23.778 17.6503 24.2652C17.4441 24.5888 17.3694 24.8306 17.3409 25.2857C17.3054 25.8867 17.501 26.3916 17.9526 26.8432C18.2975 27.1881 18.6068 27.3517 19.0976 27.4513C19.4176 27.5153 19.4389 27.5153 19.7554 27.4513C19.9368 27.4121 20.1359 27.3624 20.1928 27.3375C20.2532 27.3126 20.3244 27.2841 20.3528 27.2699C20.5626 27.1846 20.9289 26.8859 21.0924 26.6725C21.4658 26.1747 21.6152 25.5773 21.5085 25.0226C21.4125 24.5425 21.2489 24.2332 20.904 23.8918C20.5839 23.5718 20.2817 23.4011 19.8941 23.3193C19.6345 23.2624 19.1936 23.2588 19.0016 23.3086ZM19.7696 24.2545C20.4346 24.4785 20.7653 25.147 20.5235 25.7835C20.4133 26.0751 20.1252 26.356 19.8301 26.4663C19.3251 26.6547 18.7313 26.4556 18.4539 26.0076C18.2299 25.6413 18.2015 25.2608 18.3757 24.8946C18.6389 24.347 19.2327 24.0731 19.7696 24.2545Z" fill="white"/>
<path d="M34.7193 20.9685C34.4846 21.0894 34.2179 21.2388 34.097 21.3135C34.0401 21.349 33.905 21.4237 33.7983 21.4806C33.3929 21.6904 33.2187 22.0175 33.2293 22.5225C33.2364 22.7643 33.2258 22.7998 32.9377 23.287C32.8808 23.383 32.7813 23.5572 32.7208 23.671C32.6355 23.8168 32.5644 23.8951 32.4612 23.9484C32.2017 24.0835 32.1554 24.112 32.0452 24.2151C31.8176 24.4356 31.8034 24.496 31.8034 25.3885V26.1922L31.9136 26.3593C32.0381 26.5407 32.0843 26.5798 32.3688 26.7398C32.5644 26.85 32.6853 26.9851 32.8346 27.2696C32.8737 27.3478 32.9235 27.4367 32.9413 27.4652C33.1938 27.8635 33.2364 27.9772 33.2329 28.2119C33.2222 28.4929 33.2791 28.756 33.3893 28.9302C33.4676 29.0547 33.5316 29.0974 34.3103 29.5525C34.6517 29.7516 34.8899 29.8477 35.0393 29.8477C35.2029 29.8477 35.2384 29.8334 35.7576 29.5561C35.8749 29.4956 35.946 29.4885 36.5399 29.4992L37.1906 29.5098L37.3506 29.6165C37.7418 29.8832 38.0085 29.9117 38.3534 29.7303C38.997 29.3889 39.4344 29.1116 39.5553 28.9658C39.694 28.7951 39.7331 28.6529 39.7331 28.2937C39.7331 28.0626 39.7473 27.9737 39.8078 27.867C39.8896 27.7212 40.1882 27.2092 40.2558 27.0918C40.2807 27.0527 40.3127 26.9887 40.3305 26.9496C40.3518 26.9105 40.4585 26.8287 40.5723 26.7718C40.8354 26.6367 41.0239 26.4695 41.1163 26.2882C41.1839 26.1566 41.191 26.0891 41.191 25.3814C41.191 24.3751 41.1626 24.3111 40.6007 23.9875C40.4621 23.9057 40.3376 23.8133 40.3234 23.7777C40.3127 23.7422 40.2807 23.6817 40.2558 23.6426C40.2345 23.6035 40.1065 23.3866 39.9749 23.159L39.7331 22.7465V22.4478C39.7331 22.2842 39.7153 22.0887 39.694 22.0104C39.6549 21.8682 39.4059 21.5873 39.2637 21.5268C39.2175 21.5055 39.157 21.477 39.1286 21.4557C38.9188 21.317 38.3356 20.9934 38.1969 20.9401C37.9374 20.8441 37.8093 20.8725 37.3008 21.1463C37.1302 21.2388 37.1124 21.2423 36.483 21.2423L35.8394 21.2388L35.6616 21.1357C35.2135 20.8725 34.9824 20.8334 34.7193 20.9685ZM35.1317 21.9144C35.1495 21.9322 35.2598 21.9998 35.3771 22.0638L35.5905 22.1847H36.4972L37.404 22.1811L37.6564 22.0318C37.7951 21.95 37.9302 21.8824 37.9551 21.8824C38.0085 21.8824 38.517 22.1704 38.6877 22.2949C38.7979 22.3731 38.7979 22.3838 38.8157 22.7252C38.8334 23.0594 38.8406 23.0843 38.9935 23.3403C39.0788 23.4861 39.1606 23.6319 39.1748 23.6604C39.189 23.6888 39.221 23.7457 39.2459 23.7848C39.2708 23.8239 39.3633 23.9875 39.4557 24.144C39.6406 24.464 39.7758 24.6169 39.9536 24.7058C40.1207 24.7911 40.2096 24.8445 40.238 24.8872C40.2523 24.9049 40.2665 25.1218 40.2665 25.3672C40.2665 25.6126 40.2523 25.8295 40.238 25.8508C40.2238 25.8721 40.1562 25.9184 40.0887 25.9575C39.7758 26.1282 39.6157 26.2989 39.4095 26.6758C39.3704 26.7469 39.3242 26.8322 39.3064 26.8607C39.285 26.8891 39.1748 27.0812 39.0539 27.2874C38.8406 27.6501 38.837 27.6679 38.8192 27.963C38.7979 28.3862 38.7908 28.4075 38.6414 28.4893C38.5668 28.5284 38.3818 28.6315 38.2289 28.7204L37.9516 28.8804L37.6778 28.724L37.404 28.5675H36.5008H35.5976L35.338 28.7098C35.05 28.8698 34.9966 28.8769 34.8437 28.7809C34.7868 28.7453 34.6766 28.6813 34.6055 28.6422C34.3388 28.4964 34.1859 28.3862 34.1859 28.3435C34.1788 27.7603 34.1468 27.6394 33.9334 27.3052C33.8978 27.2447 33.8552 27.1736 33.8409 27.1452C33.8267 27.1167 33.7236 26.9354 33.6098 26.7433C33.496 26.5478 33.4036 26.3806 33.4036 26.3664C33.4036 26.3131 33.1653 26.1139 32.9484 25.9895L32.7244 25.8615L32.7351 25.3601L32.7457 24.8623L32.9057 24.7769C33.1084 24.6667 33.3609 24.4569 33.4071 24.3573C33.4249 24.3182 33.4605 24.2506 33.4854 24.2115C33.5102 24.1724 33.6169 23.9875 33.7236 23.8026C33.8303 23.6177 33.937 23.4363 33.9547 23.4043C34.1432 23.0808 34.161 23.0345 34.1716 22.7038C34.1859 22.398 34.2214 22.2736 34.2925 22.2736C34.3068 22.2736 34.4703 22.1847 34.6517 22.078C34.9859 21.8824 35.0677 21.854 35.1317 21.9144Z" fill="white"/>
<path d="M35.9993 23.3228C35.4517 23.4402 34.8543 23.9238 34.6054 24.443C34.4525 24.7701 34.3458 25.2679 34.3778 25.5204C34.5165 26.5552 35.1601 27.2486 36.17 27.4513C36.4865 27.5153 36.5078 27.5153 36.8278 27.4513C37.9195 27.2344 38.6485 26.3347 38.5845 25.2857C38.556 24.8306 38.4813 24.5888 38.2751 24.2652C38.1613 24.0874 37.7773 23.6607 37.731 23.6607C37.7204 23.6607 37.6421 23.6144 37.5568 23.5575C37.1728 23.3051 36.5291 23.2055 35.9993 23.3228ZM36.9772 24.3185C37.2439 24.443 37.4181 24.6208 37.5461 24.891C37.6777 25.1648 37.7026 25.4422 37.6137 25.6946C37.5781 25.7978 37.5284 25.908 37.5035 25.94C37.4786 25.9684 37.4572 26.0111 37.4572 26.0289C37.4572 26.0965 37.187 26.324 36.995 26.42C36.2482 26.797 35.3237 26.2138 35.3237 25.3675C35.3237 24.5212 36.2162 23.9558 36.9772 24.3185Z" fill="white"/>
<path d="M12.8501 27.9948C12.4874 28.13 12.2491 28.3504 12.082 28.706C11.9931 28.8945 11.9895 28.9158 12.0109 29.3994C12.0322 29.9221 12.0678 30.2635 12.1353 30.5942C12.3451 31.5792 12.53 32.2833 12.658 32.5784C12.6865 32.6424 12.7078 32.7171 12.7078 32.7455C12.7078 32.774 12.7292 32.8487 12.7576 32.9127C12.7861 32.9767 12.8358 33.1011 12.8678 33.19C12.8998 33.2789 12.9496 33.3927 12.9781 33.4461C13.0065 33.4958 13.0279 33.5563 13.0279 33.5776C13.0279 33.6772 13.7995 35.2276 13.9275 35.3911C13.9702 35.4409 14.0271 35.5369 14.0946 35.6614C14.1906 35.8463 14.4929 36.2837 14.8947 36.8171C15.6735 37.8518 16.6478 38.8261 17.6861 39.6084C18.1662 39.9712 18.5857 40.2663 18.6818 40.3125C18.7102 40.3267 18.7778 40.3659 18.8311 40.4014C18.8844 40.4334 19.0373 40.5294 19.1725 40.6112L19.4178 40.7606L19.3183 40.9775C19.1974 41.2264 19.1867 41.4469 19.2756 41.7029C19.3289 41.8487 19.4889 42.0265 20.3993 42.9368L21.4589 44H21.6794H21.8999L23.0626 42.8337L24.229 41.6673V41.5144C24.229 41.2655 24.0654 41.0628 23.8521 41.0486C23.5569 41.0273 23.5925 41.0024 22.6324 41.9554C22.1274 42.4532 21.7043 42.8621 21.6829 42.8621C21.6261 42.8621 20.2108 41.4255 20.2108 41.3686C20.2108 41.3082 24.8299 36.6748 24.8939 36.6748C24.9579 36.6748 26.3625 38.0972 26.3625 38.1647C26.3625 38.1968 25.9856 38.5986 25.5269 39.0573C24.6415 39.9391 24.5917 40.0103 24.6415 40.2663C24.6557 40.3267 24.7233 40.4334 24.7908 40.501C24.8975 40.6077 24.9402 40.6219 25.0966 40.6219H25.2744L26.4052 39.4911L27.536 38.3639V38.1541V37.9407L26.4977 36.9024C25.8398 36.2446 25.4024 35.8356 25.3064 35.7894C25.118 35.6969 24.709 35.6863 24.5419 35.7716C24.3712 35.8605 24.3001 35.8143 24.1045 35.4978C23.9161 35.1956 23.7276 34.9004 23.3898 34.3813C23.2724 34.2035 23.1729 34.0434 23.1622 34.0257C23.1515 34.0043 23.0804 33.8941 23.0057 33.7768C22.7959 33.4532 22.4368 32.8949 22.1843 32.4966C21.562 31.5223 21.4447 31.4121 20.9326 31.3054C20.5486 31.2272 20.1717 31.3374 19.8481 31.6219C19.6703 31.7819 19.6027 31.8886 19.4961 32.1908C19.4143 32.4219 19.4107 32.5926 19.4783 32.9233C19.5067 33.0585 19.5565 33.3323 19.5885 33.5278C19.6525 33.9225 19.7236 34.3101 19.7841 34.6302C19.9014 35.2133 19.8588 35.4445 19.6099 35.6329C19.4996 35.7183 19.4498 35.7325 19.2507 35.7325C19.0516 35.7289 18.984 35.7112 18.7707 35.5938C17.9706 35.1564 17.11 34.431 16.6015 33.759C16.1997 33.2291 15.8441 32.5997 15.6486 32.0699C15.6201 31.9917 15.5703 31.8637 15.5419 31.7854C15.5134 31.7072 15.4601 31.5401 15.4281 31.4121C15.3961 31.2841 15.3463 31.1063 15.3179 31.0138C15.2894 30.9214 15.2681 30.8182 15.2681 30.7862C15.2681 30.7542 15.2467 30.644 15.2183 30.5444C15.1507 30.3026 15.0796 30.0288 14.9445 29.4741C14.8129 28.9336 14.7703 28.834 14.5676 28.5602C14.3435 28.2615 14.1266 28.1122 13.7675 27.9948C13.4972 27.9095 13.0741 27.9095 12.8501 27.9948ZM13.6324 28.9514C13.8102 29.0581 13.9417 29.2572 13.988 29.4919C14.0022 29.5594 14.0342 29.6946 14.0591 29.7941C14.0804 29.8901 14.1231 30.0644 14.1515 30.1746C14.2049 30.3915 14.2724 30.6618 14.3649 31.028C14.3933 31.1525 14.4431 31.3481 14.4716 31.4654C14.5249 31.6717 14.7027 32.2228 14.8236 32.55C14.8876 32.7278 15.0867 33.1296 15.2681 33.4567C15.6415 34.1288 16.2993 34.9218 16.9571 35.4907C17.3092 35.7965 17.9528 36.2232 18.3795 36.4401C18.8062 36.6535 18.8809 36.6748 19.2436 36.6748C19.6276 36.6748 19.7983 36.625 20.0935 36.4366C20.4348 36.2126 20.634 35.9316 20.7513 35.5014C20.826 35.2169 20.8295 35.1138 20.7655 34.7831C20.7371 34.6408 20.6873 34.3741 20.6588 34.1928C20.5308 33.4532 20.4846 33.1971 20.4384 32.9624C20.3601 32.5891 20.3708 32.4468 20.4846 32.3295C20.698 32.109 20.9149 32.2299 21.2349 32.7455C21.3202 32.8842 21.4056 33.0265 21.4305 33.062C21.4554 33.1011 21.5407 33.2363 21.6261 33.3607C21.7078 33.4852 21.7754 33.5918 21.7754 33.599C21.7754 33.6061 21.843 33.7127 21.9247 33.8372C22.0101 33.9617 22.0919 34.0897 22.1132 34.1217C22.131 34.1537 22.2199 34.2959 22.3088 34.4346C22.3977 34.5733 22.4866 34.7155 22.5044 34.7475C22.5684 34.8542 23.0235 35.5512 23.0946 35.6507C23.1302 35.7041 23.1622 35.7538 23.1622 35.7645C23.1622 35.7752 23.2084 35.8498 23.2618 35.9352C23.5605 36.3868 23.6245 36.4899 23.6245 36.529C23.6245 36.5681 20.3353 39.8823 20.1681 40.0103C20.1183 40.0494 20.0792 40.0423 19.9014 39.9463C19.7876 39.8858 19.649 39.804 19.5885 39.7649C19.5316 39.7293 19.4569 39.6867 19.4285 39.6725C19.2898 39.6084 18.3759 38.9648 18.095 38.7337C17.1847 37.9834 16.8576 37.6669 16.0539 36.7637C15.7339 36.4046 15.1045 35.5334 14.8592 35.1173C14.8236 35.0604 14.7027 34.8577 14.6031 34.7013C14.5533 34.6231 14.0093 33.5207 13.9311 33.3429C13.8457 33.1474 13.7853 33.0016 13.739 32.87C13.7177 32.8024 13.6466 32.5926 13.5826 32.4077C13.3017 31.597 13.1203 30.8431 12.9745 29.9008C12.8678 29.2038 12.9141 28.962 13.1594 28.8874C13.2874 28.8518 13.5186 28.8803 13.6324 28.9514Z" fill="white"/>
<path d="M42.1474 27.9984C41.7989 28.1122 41.5464 28.2935 41.3402 28.5816C41.1268 28.8731 41.0912 28.9692 40.9241 29.6875C40.8566 29.9897 40.7854 30.2706 40.725 30.4875C40.7001 30.5764 40.6681 30.7116 40.6539 30.7898C40.5934 31.1063 40.4405 31.629 40.2485 32.1517C40.1703 32.3686 39.9142 32.8807 39.7364 33.1687C39.1426 34.1359 38.1896 35.032 37.1549 35.5938C36.9415 35.7112 36.8739 35.7289 36.6748 35.7325C36.4792 35.7325 36.4259 35.7183 36.3192 35.6365C36.1236 35.4871 36.0596 35.3342 36.081 35.0675C36.0881 34.9431 36.1165 34.7475 36.1414 34.6302C36.2019 34.3173 36.2694 33.9297 36.337 33.5278C36.369 33.3323 36.4188 33.0585 36.4472 32.9233C36.5148 32.5926 36.5112 32.4219 36.4294 32.1908C36.3228 31.8886 36.2552 31.7819 36.0774 31.6219C35.7538 31.3374 35.3769 31.2272 34.9964 31.3054C34.4808 31.4121 34.3635 31.5223 33.7412 32.4966C33.4105 33.0158 33.2754 33.222 33.1865 33.3607C33.1296 33.4461 33.0833 33.5207 33.0833 33.5278C33.0833 33.535 33.0158 33.6416 32.934 33.7661C32.8486 33.8905 32.7669 34.0186 32.7455 34.0506C32.71 34.111 32.4895 34.4595 32.0592 35.128C31.9312 35.3236 31.789 35.5512 31.7356 35.6329C31.6254 35.8107 31.533 35.8498 31.3836 35.7716C31.2165 35.6863 30.8075 35.6969 30.6191 35.7894C30.5231 35.8356 30.0857 36.2446 29.4314 36.9024L28.3895 37.9407V38.1541V38.3639L31.2094 41.1802L34.0256 44H34.2461H34.4666L35.5262 42.9368C36.4366 42.0265 36.5966 41.8522 36.6499 41.7029C36.7388 41.4469 36.7281 41.2264 36.6072 40.9775L36.5077 40.7606L36.753 40.6112C36.8882 40.5294 37.0411 40.4334 37.0944 40.4014C37.1477 40.3659 37.2153 40.3267 37.2437 40.3125C37.3255 40.2734 37.738 39.9854 38.026 39.7685C38.4599 39.4378 38.5239 39.1995 38.2501 38.9328C38.1363 38.8226 38.1007 38.8084 37.9407 38.8084C37.7878 38.8084 37.7309 38.8333 37.5638 38.9506C37.1797 39.2244 36.4757 39.6973 36.3548 39.7542C36.3263 39.7685 36.1983 39.8431 36.0739 39.9178C35.9458 39.9925 35.8249 40.0529 35.8107 40.0529C35.7609 40.0529 32.301 36.5788 32.301 36.529C32.301 36.4899 32.365 36.3868 32.6637 35.9352C32.7171 35.8498 32.7633 35.7752 32.7633 35.7645C32.7633 35.7538 32.7953 35.7041 32.8309 35.6507C32.902 35.5512 33.3571 34.8542 33.4211 34.7475C33.4994 34.6195 33.7696 34.1928 33.9403 33.9368C34.0363 33.791 34.1252 33.6452 34.1394 33.6167C34.1537 33.5883 34.2283 33.4674 34.3066 33.35C34.3884 33.2291 34.4701 33.1011 34.495 33.062C34.5199 33.0265 34.6053 32.8842 34.6906 32.7455C35.0106 32.2299 35.2275 32.109 35.4409 32.3295C35.5547 32.4504 35.5618 32.5749 35.48 32.9945C35.3982 33.4283 35.3342 33.7768 35.2702 34.1679C35.2382 34.3635 35.1884 34.6408 35.16 34.7831C35.096 35.1138 35.0995 35.2169 35.1742 35.5014C35.2916 35.9316 35.4907 36.2126 35.8321 36.4366C36.1272 36.625 36.2979 36.6748 36.6819 36.6748C37.0446 36.6748 37.1193 36.6535 37.546 36.4401C37.834 36.2943 37.8198 36.3014 38.2892 35.9956C39.4484 35.2382 40.4441 34.047 41.0344 32.71C41.1801 32.3757 41.3473 31.885 41.4504 31.4654C41.4824 31.3481 41.5322 31.1489 41.5642 31.0209C41.6282 30.7649 41.6993 30.484 41.774 30.1746C41.8024 30.0644 41.8451 29.8901 41.8664 29.7941C41.8913 29.6946 41.9233 29.5594 41.9376 29.4919C42.0229 29.0865 42.254 28.8803 42.6167 28.8803C42.8123 28.8803 42.8443 28.8909 42.9225 28.9798C43.0079 29.0794 43.0114 29.0972 42.9937 29.4385C42.983 29.6341 42.9581 29.8724 42.9368 29.9719C42.8976 30.1604 42.8372 30.5124 42.7945 30.772C42.7803 30.8609 42.7483 31.0031 42.7234 31.092C42.6985 31.1809 42.6558 31.3481 42.6238 31.4654C42.5385 31.8068 42.3785 32.301 42.2576 32.6211C42.2149 32.7278 42.1687 32.8558 42.1509 32.9056C42.0229 33.3109 41.4966 34.3813 41.1339 34.9858C40.7677 35.5974 40.2912 36.2766 39.8929 36.7424C39.7009 36.97 39.4769 37.2153 39.2315 37.4749C38.9079 37.8127 38.8439 37.9549 38.915 38.1647C39.0075 38.4457 39.3666 38.5843 39.5871 38.4279C39.6867 38.3603 40.2343 37.7949 40.4298 37.5602C40.5081 37.4678 40.6325 37.3149 40.7143 37.2224C41.1873 36.6535 41.6673 35.953 42.1082 35.1884C42.3109 34.8364 42.8301 33.7554 42.9688 33.4034C43.0079 33.2967 43.0577 33.1758 43.0754 33.1367C43.1146 33.0513 43.4097 32.141 43.4808 31.8921C43.6479 31.3018 43.8329 30.4235 43.8791 29.979C43.8897 29.8475 43.9182 29.7657 43.9502 29.7515C43.9893 29.7372 44 29.6412 44 29.2892C44 29.0189 43.9858 28.8554 43.9644 28.8696C43.9466 28.8803 43.8933 28.8056 43.8435 28.7025C43.6728 28.3433 43.431 28.1229 43.0577 27.9913C42.8265 27.9059 42.4105 27.9095 42.1474 27.9984ZM33.3927 38.9933C34.6693 40.2698 35.7147 41.3402 35.7147 41.3686C35.7147 41.4255 34.2959 42.8621 34.239 42.8621C34.1786 42.8621 29.563 38.2252 29.563 38.1647C29.563 38.1043 30.9747 36.6748 31.0351 36.6748C31.0565 36.6748 32.1197 37.7203 33.3927 38.9933Z" fill="white"/>
</svg>
